<svg host="65bd71144e" xmlns="http://www.w3.org/2000/svg" xmlns:xlink="http://www.w3.org/1999/xlink" version="1.1" width="713px" height="1311px" viewBox="-0.5 -0.5 713 1311" content="&lt;mxfile&gt;&lt;diagram id=&quot;8_qZbOoh_S2SbSI_PYs8&quot; name=&quot;Page-1&quot;&gt;3Zxbc6M2FMc/jadP9gh0AR69jpPtzHaaSbbT9pHYik2LkYvlXPrpK2zARoJ1MBJBzcOuEeL2109HR+cIRnC2ebtLw+36F7ak8cgFy7cRvBm5rhP4WPyXlbwfS1wE/WPJKo2Wea1TwWP0L80LQV66j5Z0V6nIGYt5tK0WLliS0AWvlIVpyl6r1Z5ZXL3qNlxRpeBxEcZq6e/Rkq+PpT4Gp/KvNFqtiys7IN+zCYvKecFuHS7Z61kRnI/gLGWMH39t3mY0ztQrdDked9uwt7yxlCb8Iwe4xwNewnifP9s9Szndp/nt8ffimcWdbrOf+008XXCWjuCXF5rySKjyLXyi8T3bRTxiiajyxDhnm7MK0zhaZTs424rSNd/EYsMRP3c8ZX/TGYuz84mrwNkMiD+xR32Q/Nmyc9K3s6L8we4o21Cevosq+V4P5iIXmBX4vJ7arKiyPmsukpeFOSWr8swnIcWPXMsGXYEiIF0KhvLNhCW0qoR4zPT9D7EBio0/s40JLjZv3s533rznW4qCmX63t6WC2VUb2Sj6TpiuaFHk1Wua0jjk0Uv1XHUK5Yfes0hcpWwLx5XaAkki79g+XdD8qJPO0zQN38+qbbMKux9ch0jXgRL/Un0XVOuPHRdL7Xy8hVOrl6J8CASodLCbu/nsk3qXxEa33iV3Ltxb50Kqpg/z6bdPE5UQbSarKmo5bvQgKlZEnT3MP0nS21sAfDOSjt3+JA1USVmy28eciuEVCEmFWQ0XC5Yu6YYerNLIJbG4gS9PogJZZb+WP+2TTIKU/UW5OqbEsfB5sqHkdR1x+rgNF9meV+F3VSVuUK1G20YhIZLgDNQeX5rTcykDDVIWQ/eZlt/TMNmJE/E0E3KfZP8KIcNkSWuVXLDNNh7N4Gga8GNdRf8BqQtrODWnrqOoK7z26Dk6gCpJa7euCPWpq+pe11ErOve2sJt15HK6WCfRP/usbmYEwHOUhMkiOojuZycakMCY9Cmw6l4p4FbUtVpa4vcprepl1VrckNeb24MZ2ES7g7IZ1zuavkSLYSnq1zhY5hRVXSzVylotZ9DroEUUORX36u7hJhN1sD6U16denqLXVHTl6Gmf81fqdTB+oCgboGxjp1fh/B/1Wys4G+M+9VLnPY/77TaNNifQlmy3O+o3bHfRAX0qV9yvfVFDv17VT4oaKieCWDYgAFfPdHya7vFHv/6OG+OPjtxRJV66RR9d11agiF1AOWZwksPTF3GSns9xNPMELeUpsAwn2JWnypDTspGRpY3sALta2cWgYys33HDQzWpAotlqYFuBanAWhwoU9Abi1Uj3hXzNQBFbgXLtAgoFhoCSs8eXgJLqE6AZKM9WoKBdQBFDjrKy7uMSUJJF8zQv+3B9W4FCdgHldfaUG25Y9tUuASUB6CPNQAW2AoXtAsrHhoBC3YAKNDvlxaKX9kCNwQQ4uEoVQugCV4ete5pFgbMEjSHYLJvnB6Ycdnnpa0vYHBBUDuhOW9uYwqWVwZfJ0E6Bp4sC3GAKPiXaA9tOzptbprQQTrsh58q+biZErK+VsbCTZ39u9bSGYj+kpd9CpASE7ogxbDuzGgxeZlJaGo1IMAnO/vxqM7pmBhbScuJO5PX1mulqO80aDF1mXrPoiS5DbLUMW8umS/+7G23nXIOhy0wixNjQiKV2NBQk8lpmU1uPpYbzKIXc9vE4dIe8pzwKaRmllIHSnUdBbdcbDQYo1y6gTOVRSMvEnAyU7jwKcm0FykwexRhQpvIorX0wKdCkO4+C9MWNegbKTCTSGFCm8ihdfS4HBJqJUt/CmM6+zr/Pf3tQ37r49cu3n++y5fC+OhXo64MIlbeLOy1ull+FLVMSfbyz3XbJxqX3rD8hACynAcrt1mkAOQAMpRPpWj4qB/fkr4HI9yV31urXE7r3vc7BwBKCpvQmhPCaRNSVRr6fBYfXc4bRhPge9mCW1kTltKZsXjKBPgxgABDwAhdAMxSClhTK02ismcLOQcOBUTh0ayfPrnEwCYgSWzS8ZrEtdcjTTF3nYOLAqDMzBTdGHfJ6oU7+gssl6qQRGmvOuxcimKTuuqUfV1LXz3pHbdThYJDUSSOy52imrnNccWC2rp+30bRR131BSYMnp0zO21k3qX53ztyunJVfmjpxNgHitBXW3F4tnGHWWrMlRfjk95w1mzBtaLR9U/FjaCAZDeL2h4bhxY1dySijDYaWYmtDQ8OKtx+PTjatd5MHofH1PHjeBHoQuggTMQKBwKsaDjQRgzpyCHA86PgB6sUVGku+UHd6Ogcya+iZOARVDYvj+P8bw9KdLNnvMDUIEb3wiM3Tp5yP1U9fxIbz/wA=&lt;/diagram&gt;&lt;/mxfile&gt;">
    <defs/>
    <g>
        <ellipse cx="693" cy="387.5" rx="7.499999999999999" ry="7.499999999999999" fill="rgb(255, 255, 255)" stroke="#cc0000" pointer-events="all"/>
        <path d="M 693 395 L 693 420 M 693 400 L 678 400 M 693 400 L 708 400 M 693 420 L 678 440 M 693 420 L 708 440" fill="none" stroke="#cc0000" stroke-miterlimit="10" pointer-events="all"/>
        <g transform="translate(-0.5 -0.5)">
            <switch>
                <foreignObject pointer-events="none" width="100%" height="100%" requiredFeatures="http://www.w3.org/TR/SVG11/feature#Extensibility" style="overflow: visible; text-align: left;">
                    <div xmlns="http://www.w3.org/1999/xhtml" style="display: flex; align-items: unsafe flex-start; justify-content: unsafe center; width: 1px; height: 1px; padding-top: 447px; margin-left: 693px;">
                        <div data-drawio-colors="color: rgb(0, 0, 0); " style="box-sizing: border-box; font-size: 0px; text-align: center;">
                            <div style="display: inline-block; font-size: 12px; font-family: Helvetica; color: rgb(0, 0, 0); line-height: 1.2; pointer-events: all; white-space: nowrap;">
                                Porteur
                            </div>
                        </div>
                    </div>
                </foreignObject>
                <text x="693" y="459" fill="rgb(0, 0, 0)" font-family="Helvetica" font-size="12px" text-anchor="middle">
                    Porte...
                </text>
            </switch>
        </g>
        <path d="M 68 410 L 98.3 402.43 Q 108 400 109.12 390.06 L 146.88 54.94 Q 148 45 158 45 L 281.63 45" fill="none" stroke="#0000ff" stroke-miterlimit="10" pointer-events="stroke"/>
        <path d="M 286.88 45 L 279.88 48.5 L 281.63 45 L 279.88 41.5 Z" fill="#0000ff" stroke="#0000ff" stroke-miterlimit="10" pointer-events="all"/>
        <ellipse cx="33" cy="392.5" rx="7.499999999999999" ry="7.499999999999999" fill="rgb(255, 255, 255)" stroke="#0000ff" pointer-events="all"/>
        <path d="M 33 400 L 33 425 M 33 405 L 18 405 M 33 405 L 48 405 M 33 425 L 18 445 M 33 425 L 48 445" fill="none" stroke="#0000ff" stroke-miterlimit="10" pointer-events="all"/>
        <g transform="translate(-0.5 -0.5)">
            <switch>
                <foreignObject pointer-events="none" width="100%" height="100%" requiredFeatures="http://www.w3.org/TR/SVG11/feature#Extensibility" style="overflow: visible; text-align: left;">
                    <div xmlns="http://www.w3.org/1999/xhtml" style="display: flex; align-items: unsafe flex-start; justify-content: unsafe center; width: 1px; height: 1px; padding-top: 452px; margin-left: 33px;">
                        <div data-drawio-colors="color: rgb(0, 0, 0); " style="box-sizing: border-box; font-size: 0px; text-align: center;">
                            <div style="display: inline-block; font-size: 12px; font-family: Helvetica; color: rgb(0, 0, 0); line-height: 1.2; pointer-events: all; white-space: nowrap;">
                                DGEC
                            </div>
                        </div>
                    </div>
                </foreignObject>
                <text x="33" y="464" fill="rgb(0, 0, 0)" font-family="Helvetica" font-size="12px" text-anchor="middle">
                    DGEC
                </text>
            </switch>
        </g>
        <ellipse cx="33" cy="277.5" rx="7.499999999999999" ry="7.499999999999999" fill="rgb(255, 255, 255)" stroke="#006600" pointer-events="all"/>
        <path d="M 33 285 L 33 310 M 33 290 L 18 290 M 33 290 L 48 290 M 33 310 L 18 330 M 33 310 L 48 330" fill="none" stroke="#006600" stroke-miterlimit="10" pointer-events="all"/>
        <g transform="translate(-0.5 -0.5)">
            <switch>
                <foreignObject pointer-events="none" width="100%" height="100%" requiredFeatures="http://www.w3.org/TR/SVG11/feature#Extensibility" style="overflow: visible; text-align: left;">
                    <div xmlns="http://www.w3.org/1999/xhtml" style="display: flex; align-items: unsafe flex-start; justify-content: unsafe center; width: 1px; height: 1px; padding-top: 337px; margin-left: 33px;">
                        <div data-drawio-colors="color: rgb(0, 0, 0); " style="box-sizing: border-box; font-size: 0px; text-align: center;">
                            <div style="display: inline-block; font-size: 12px; font-family: Helvetica; color: rgb(0, 0, 0); line-height: 1.2; pointer-events: all; white-space: nowrap;">
                                DREAL
                            </div>
                        </div>
                    </div>
                </foreignObject>
                <text x="33" y="349" fill="rgb(0, 0, 0)" font-family="Helvetica" font-size="12px" text-anchor="middle">
                    DREAL
                </text>
            </switch>
        </g>
        <ellipse cx="33" cy="157.5" rx="7.499999999999999" ry="7.499999999999999" fill="rgb(255, 255, 255)" stroke="#ff0080" pointer-events="all"/>
        <path d="M 33 165 L 33 190 M 33 170 L 18 170 M 33 170 L 48 170 M 33 190 L 18 210 M 33 190 L 48 210" fill="none" stroke="#ff0080" stroke-miterlimit="10" pointer-events="all"/>
        <g transform="translate(-0.5 -0.5)">
            <switch>
                <foreignObject pointer-events="none" width="100%" height="100%" requiredFeatures="http://www.w3.org/TR/SVG11/feature#Extensibility" style="overflow: visible; text-align: left;">
                    <div xmlns="http://www.w3.org/1999/xhtml" style="display: flex; align-items: unsafe flex-start; justify-content: unsafe center; width: 1px; height: 1px; padding-top: 217px; margin-left: 33px;">
                        <div data-drawio-colors="color: rgb(0, 0, 0); " style="box-sizing: border-box; font-size: 0px; text-align: center;">
                            <div style="display: inline-block; font-size: 12px; font-family: Helvetica; color: rgb(0, 0, 0); line-height: 1.2; pointer-events: all; white-space: nowrap;">
                                CRE
                            </div>
                        </div>
                    </div>
                </foreignObject>
                <text x="33" y="229" fill="rgb(0, 0, 0)" font-family="Helvetica" font-size="12px" text-anchor="middle">
                    CRE
                </text>
            </switch>
        </g>
        <ellipse cx="388" cy="410" rx="100" ry="45" fill="rgb(255, 255, 255)" stroke="rgb(0, 0, 0)" pointer-events="all"/>
        <g transform="translate(-0.5 -0.5)">
            <switch>
                <foreignObject pointer-events="none" width="100%" height="100%" requiredFeatures="http://www.w3.org/TR/SVG11/feature#Extensibility" style="overflow: visible; text-align: left;">
                    <div xmlns="http://www.w3.org/1999/xhtml" style="display: flex; align-items: unsafe center; justify-content: unsafe center; width: 198px; height: 1px; padding-top: 410px; margin-left: 289px;">
                        <div data-drawio-colors="color: rgb(0, 0, 0); " style="box-sizing: border-box; font-size: 0px; text-align: center;">
                            <div style="display: inline-block; font-size: 12px; font-family: Helvetica; color: rgb(0, 0, 0); line-height: 1.2; pointer-events: all; white-space: normal; overflow-wrap: normal;">
                                Consulter le raccordement
                                <br/>
                                d'un projet
                            </div>
                        </div>
                    </div>
                </foreignObject>
                <text x="388" y="414" fill="rgb(0, 0, 0)" font-family="Helvetica" font-size="12px" text-anchor="middle">
                    Consulter le raccordement...
                </text>
            </switch>
        </g>
        <ellipse cx="388" cy="535" rx="100" ry="45" fill="rgb(255, 255, 255)" stroke="rgb(0, 0, 0)" pointer-events="all"/>
        <g transform="translate(-0.5 -0.5)">
            <switch>
                <foreignObject pointer-events="none" width="100%" height="100%" requiredFeatures="http://www.w3.org/TR/SVG11/feature#Extensibility" style="overflow: visible; text-align: left;">
                    <div xmlns="http://www.w3.org/1999/xhtml" style="display: flex; align-items: unsafe center; justify-content: unsafe center; width: 198px; height: 1px; padding-top: 535px; margin-left: 289px;">
                        <div data-drawio-colors="color: rgb(0, 0, 0); " style="box-sizing: border-box; font-size: 0px; text-align: center;">
                            <div style="display: inline-block; font-size: 12px; font-family: Helvetica; color: rgb(0, 0, 0); line-height: 1.2; pointer-events: all; white-space: normal; overflow-wrap: normal;">
                                Transmettre une demande
                                <br/>
                                compléte de raccordement
                            </div>
                        </div>
                    </div>
                </foreignObject>
                <text x="388" y="539" fill="rgb(0, 0, 0)" font-family="Helvetica" font-size="12px" text-anchor="middle">
                    Transmettre une demande...
                </text>
            </switch>
        </g>
        <ellipse cx="388" cy="655" rx="100" ry="45" fill="rgb(255, 255, 255)" stroke="rgb(0, 0, 0)" pointer-events="all"/>
        <g transform="translate(-0.5 -0.5)">
            <switch>
                <foreignObject pointer-events="none" width="100%" height="100%" requiredFeatures="http://www.w3.org/TR/SVG11/feature#Extensibility" style="overflow: visible; text-align: left;">
                    <div xmlns="http://www.w3.org/1999/xhtml" style="display: flex; align-items: unsafe center; justify-content: unsafe center; width: 198px; height: 1px; padding-top: 655px; margin-left: 289px;">
                        <div data-drawio-colors="color: rgb(0, 0, 0); " style="box-sizing: border-box; font-size: 0px; text-align: center;">
                            <div style="display: inline-block; font-size: 12px; font-family: Helvetica; color: rgb(0, 0, 0); line-height: 1.2; pointer-events: all; white-space: normal; overflow-wrap: normal;">
                                Modifier une demande
                                <br/>
                                compléte de raccordement
                            </div>
                        </div>
                    </div>
                </foreignObject>
                <text x="388" y="659" fill="rgb(0, 0, 0)" font-family="Helvetica" font-size="12px" text-anchor="middle">
                    Modifier une demande...
                </text>
            </switch>
        </g>
        <ellipse cx="388" cy="775" rx="100" ry="45" fill="rgb(255, 255, 255)" stroke="rgb(0, 0, 0)" pointer-events="all"/>
        <g transform="translate(-0.5 -0.5)">
            <switch>
                <foreignObject pointer-events="none" width="100%" height="100%" requiredFeatures="http://www.w3.org/TR/SVG11/feature#Extensibility" style="overflow: visible; text-align: left;">
                    <div xmlns="http://www.w3.org/1999/xhtml" style="display: flex; align-items: unsafe center; justify-content: unsafe center; width: 198px; height: 1px; padding-top: 775px; margin-left: 289px;">
                        <div data-drawio-colors="color: rgb(0, 0, 0); " style="box-sizing: border-box; font-size: 0px; text-align: center;">
                            <div style="display: inline-block; font-size: 12px; font-family: Helvetica; color: rgb(0, 0, 0); line-height: 1.2; pointer-events: all; white-space: normal; overflow-wrap: normal;">
                                Transmettre une proposition
                                <br/>
                                technique et financière
                            </div>
                        </div>
                    </div>
                </foreignObject>
                <text x="388" y="779" fill="rgb(0, 0, 0)" font-family="Helvetica" font-size="12px" text-anchor="middle">
                    Transmettre une proposition...
                </text>
            </switch>
        </g>
        <ellipse cx="388" cy="895" rx="100" ry="45" fill="rgb(255, 255, 255)" stroke="rgb(0, 0, 0)" pointer-events="all"/>
        <g transform="translate(-0.5 -0.5)">
            <switch>
                <foreignObject pointer-events="none" width="100%" height="100%" requiredFeatures="http://www.w3.org/TR/SVG11/feature#Extensibility" style="overflow: visible; text-align: left;">
                    <div xmlns="http://www.w3.org/1999/xhtml" style="display: flex; align-items: unsafe center; justify-content: unsafe center; width: 198px; height: 1px; padding-top: 895px; margin-left: 289px;">
                        <div data-drawio-colors="color: rgb(0, 0, 0); " style="box-sizing: border-box; font-size: 0px; text-align: center;">
                            <div style="display: inline-block; font-size: 12px; font-family: Helvetica; color: rgb(0, 0, 0); line-height: 1.2; pointer-events: all; white-space: normal; overflow-wrap: normal;">
                                Modifier une proposition
                                <br/>
                                technique et financière
                            </div>
                        </div>
                    </div>
                </foreignObject>
                <text x="388" y="899" fill="rgb(0, 0, 0)" font-family="Helvetica" font-size="12px" text-anchor="middle">
                    Modifier une proposition...
                </text>
            </switch>
        </g>
        <ellipse cx="388" cy="1015" rx="100" ry="45" fill="rgb(255, 255, 255)" stroke="rgb(0, 0, 0)" pointer-events="all"/>
        <g transform="translate(-0.5 -0.5)">
            <switch>
                <foreignObject pointer-events="none" width="100%" height="100%" requiredFeatures="http://www.w3.org/TR/SVG11/feature#Extensibility" style="overflow: visible; text-align: left;">
                    <div xmlns="http://www.w3.org/1999/xhtml" style="display: flex; align-items: unsafe center; justify-content: unsafe center; width: 198px; height: 1px; padding-top: 1015px; margin-left: 289px;">
                        <div data-drawio-colors="color: rgb(0, 0, 0); " style="box-sizing: border-box; font-size: 0px; text-align: center;">
                            <div style="display: inline-block; font-size: 12px; font-family: Helvetica; color: rgb(0, 0, 0); line-height: 1.2; pointer-events: all; white-space: normal; overflow-wrap: normal;">
                                Transmettre une date
                                <br/>
                                de mise en service
                            </div>
                        </div>
                    </div>
                </foreignObject>
                <text x="388" y="1019" fill="rgb(0, 0, 0)" font-family="Helvetica" font-size="12px" text-anchor="middle">
                    Transmettre une date...
                </text>
            </switch>
        </g>
        <ellipse cx="388" cy="1135" rx="100" ry="45" fill="rgb(255, 255, 255)" stroke="rgb(0, 0, 0)" pointer-events="all"/>
        <g transform="translate(-0.5 -0.5)">
            <switch>
                <foreignObject pointer-events="none" width="100%" height="100%" requiredFeatures="http://www.w3.org/TR/SVG11/feature#Extensibility" style="overflow: visible; text-align: left;">
                    <div xmlns="http://www.w3.org/1999/xhtml" style="display: flex; align-items: unsafe center; justify-content: unsafe center; width: 198px; height: 1px; padding-top: 1135px; margin-left: 289px;">
                        <div data-drawio-colors="color: rgb(0, 0, 0); " style="box-sizing: border-box; font-size: 0px; text-align: center;">
                            <div style="display: inline-block; font-size: 12px; font-family: Helvetica; color: rgb(0, 0, 0); line-height: 1.2; pointer-events: all; white-space: normal; overflow-wrap: normal;">
                                Modifier une date
                                <br/>
                                de mise en service
                            </div>
                        </div>
                    </div>
                </foreignObject>
                <text x="388" y="1139" fill="rgb(0, 0, 0)" font-family="Helvetica" font-size="12px" text-anchor="middle">
                    Modifier une date...
                </text>
            </switch>
        </g>
        <ellipse cx="388" cy="285" rx="100" ry="45" fill="rgb(255, 255, 255)" stroke="rgb(0, 0, 0)" pointer-events="all"/>
        <g transform="translate(-0.5 -0.5)">
            <switch>
                <foreignObject pointer-events="none" width="100%" height="100%" requiredFeatures="http://www.w3.org/TR/SVG11/feature#Extensibility" style="overflow: visible; text-align: left;">
                    <div xmlns="http://www.w3.org/1999/xhtml" style="display: flex; align-items: unsafe center; justify-content: unsafe center; width: 198px; height: 1px; padding-top: 285px; margin-left: 289px;">
                        <div data-drawio-colors="color: rgb(0, 0, 0); " style="box-sizing: border-box; font-size: 0px; text-align: center;">
                            <div style="display: inline-block; font-size: 12px; font-family: Helvetica; color: rgb(0, 0, 0); line-height: 1.2; pointer-events: all; white-space: normal; overflow-wrap: normal;">
                                Consulter le GRD d'un projet
                            </div>
                        </div>
                    </div>
                </foreignObject>
                <text x="388" y="289" fill="rgb(0, 0, 0)" font-family="Helvetica" font-size="12px" text-anchor="middle">
                    Consulter le GRD d'un projet
                </text>
            </switch>
        </g>
        <ellipse cx="388" cy="45" rx="100" ry="45" fill="rgb(255, 255, 255)" stroke="rgb(0, 0, 0)" pointer-events="all"/>
        <g transform="translate(-0.5 -0.5)">
            <switch>
                <foreignObject pointer-events="none" width="100%" height="100%" requiredFeatures="http://www.w3.org/TR/SVG11/feature#Extensibility" style="overflow: visible; text-align: left;">
                    <div xmlns="http://www.w3.org/1999/xhtml" style="display: flex; align-items: unsafe center; justify-content: unsafe center; width: 198px; height: 1px; padding-top: 45px; margin-left: 289px;">
                        <div data-drawio-colors="color: rgb(0, 0, 0); " style="box-sizing: border-box; font-size: 0px; text-align: center;">
                            <div style="display: inline-block; font-size: 12px; font-family: Helvetica; color: rgb(0, 0, 0); line-height: 1.2; pointer-events: all; white-space: normal; overflow-wrap: normal;">
                                Attribuer un GRD à un projet
                            </div>
                        </div>
                    </div>
                </foreignObject>
                <text x="388" y="49" fill="rgb(0, 0, 0)" font-family="Helvetica" font-size="12px" text-anchor="middle">
                    Attribuer un GRD à un projet
                </text>
            </switch>
        </g>
        <ellipse cx="388" cy="165" rx="100" ry="45" fill="rgb(255, 255, 255)" stroke="rgb(0, 0, 0)" pointer-events="all"/>
        <g transform="translate(-0.5 -0.5)">
            <switch>
                <foreignObject pointer-events="none" width="100%" height="100%" requiredFeatures="http://www.w3.org/TR/SVG11/feature#Extensibility" style="overflow: visible; text-align: left;">
                    <div xmlns="http://www.w3.org/1999/xhtml" style="display: flex; align-items: unsafe center; justify-content: unsafe center; width: 198px; height: 1px; padding-top: 165px; margin-left: 289px;">
                        <div data-drawio-colors="color: rgb(0, 0, 0); " style="box-sizing: border-box; font-size: 0px; text-align: center;">
                            <div style="display: inline-block; font-size: 12px; font-family: Helvetica; color: rgb(0, 0, 0); line-height: 1.2; pointer-events: all; white-space: normal; overflow-wrap: normal;">
                                Modifier le GRD d'un projet
                            </div>
                        </div>
                    </div>
                </foreignObject>
                <text x="388" y="169" fill="rgb(0, 0, 0)" font-family="Helvetica" font-size="12px" text-anchor="middle">
                    Modifier le GRD d'un projet
                </text>
            </switch>
        </g>
        <ellipse cx="388" cy="1265" rx="100" ry="45" fill="rgb(255, 255, 255)" stroke="rgb(0, 0, 0)" pointer-events="all"/>
        <g transform="translate(-0.5 -0.5)">
            <switch>
                <foreignObject pointer-events="none" width="100%" height="100%" requiredFeatures="http://www.w3.org/TR/SVG11/feature#Extensibility" style="overflow: visible; text-align: left;">
                    <div xmlns="http://www.w3.org/1999/xhtml" style="display: flex; align-items: unsafe center; justify-content: unsafe center; width: 198px; height: 1px; padding-top: 1265px; margin-left: 289px;">
                        <div data-drawio-colors="color: rgb(0, 0, 0); " style="box-sizing: border-box; font-size: 0px; text-align: center;">
                            <div style="display: inline-block; font-size: 12px; font-family: Helvetica; color: rgb(0, 0, 0); line-height: 1.2; pointer-events: all; white-space: normal; overflow-wrap: normal;">
                                Supprimer un dossier de raccordement
                            </div>
                        </div>
                    </div>
                </foreignObject>
                <text x="388" y="1269" fill="rgb(0, 0, 0)" font-family="Helvetica" font-size="12px" text-anchor="middle">
                    Supprimer un dossier de raccordem...
                </text>
            </switch>
        </g>
        <path d="M 68 410 L 118 410 Q 128 410 129.22 400.07 L 156.78 174.93 Q 158 165 168 165 L 281.63 165" fill="none" stroke="#0000ff" stroke-miterlimit="10" pointer-events="stroke"/>
        <path d="M 286.88 165 L 279.88 168.5 L 281.63 165 L 279.88 161.5 Z" fill="#0000ff" stroke="#0000ff" stroke-miterlimit="10" pointer-events="all"/>
        <path d="M 68 410 L 138 410 Q 148 410 149.58 400.13 L 166.42 294.87 Q 168 285 178 285 L 281.63 285" fill="none" stroke="#0000ff" stroke-miterlimit="10" pointer-events="stroke"/>
        <path d="M 286.88 285 L 279.88 288.5 L 281.63 285 L 279.88 281.5 Z" fill="#0000ff" stroke="#0000ff" stroke-miterlimit="10" pointer-events="all"/>
        <path d="M 68 410 L 281.63 410" fill="none" stroke="#0000ff" stroke-miterlimit="10" pointer-events="stroke"/>
        <path d="M 286.88 410 L 279.88 413.5 L 281.63 410 L 279.88 406.5 Z" fill="#0000ff" stroke="#0000ff" stroke-miterlimit="10" pointer-events="all"/>
        <path d="M 68 410 L 128 410 Q 138 410 140.33 419.72 L 165.67 525.28 Q 168 535 178 535 L 281.63 535" fill="none" stroke="#0000ff" stroke-miterlimit="10" pointer-events="stroke"/>
        <path d="M 286.88 535 L 279.88 538.5 L 281.63 535 L 279.88 531.5 Z" fill="#0000ff" stroke="#0000ff" stroke-miterlimit="10" pointer-events="all"/>
        <path d="M 68 410 L 118 410 Q 128 410 130.75 419.62 L 195.25 645.38 Q 198 655 208 655 L 281.63 655" fill="none" stroke="#0000ff" stroke-miterlimit="10" pointer-events="stroke"/>
        <path d="M 286.88 655 L 279.88 658.5 L 281.63 655 L 279.88 651.5 Z" fill="#0000ff" stroke="#0000ff" stroke-miterlimit="10" pointer-events="all"/>
        <path d="M 68 410 L 108 410 Q 118 410 120.64 419.64 L 215.36 765.36 Q 218 775 228 775 L 281.63 775" fill="none" stroke="#0000ff" stroke-miterlimit="10" pointer-events="stroke"/>
        <path d="M 286.88 775 L 279.88 778.5 L 281.63 775 L 279.88 771.5 Z" fill="#0000ff" stroke="#0000ff" stroke-miterlimit="10" pointer-events="all"/>
        <path d="M 68 410 L 98 410 Q 108 410 110.4 419.71 L 225.6 885.29 Q 228 895 238 895 L 281.63 895" fill="none" stroke="#0000ff" stroke-miterlimit="10" pointer-events="stroke"/>
        <path d="M 286.88 895 L 279.88 898.5 L 281.63 895 L 279.88 891.5 Z" fill="#0000ff" stroke="#0000ff" stroke-miterlimit="10" pointer-events="all"/>
        <path d="M 68 410 L 88 410 Q 98 410 99.79 419.84 L 206.21 1005.16 Q 208 1015 218 1015 L 281.63 1015" fill="none" stroke="#0000ff" stroke-miterlimit="10" pointer-events="stroke"/>
        <path d="M 286.88 1015 L 279.88 1018.5 L 281.63 1015 L 279.88 1011.5 Z" fill="#0000ff" stroke="#0000ff" stroke-miterlimit="10" pointer-events="all"/>
        <path d="M 68 410 L 78 410 Q 88 410 89.63 419.87 L 206.37 1125.13 Q 208 1135 218 1135 L 281.63 1135" fill="none" stroke="#0000ff" stroke-miterlimit="10" pointer-events="stroke"/>
        <path d="M 286.88 1135 L 279.88 1138.5 L 281.63 1135 L 279.88 1131.5 Z" fill="#0000ff" stroke="#0000ff" stroke-miterlimit="10" pointer-events="all"/>
        <path d="M 68 410 L 73 410 Q 78 410 79.51 419.89 L 206.49 1250.11 Q 208 1260 218 1259.99 L 278.63 1259.96" fill="none" stroke="#0000ff" stroke-miterlimit="10" pointer-events="stroke"/>
        <path d="M 283.88 1259.96 L 276.88 1263.46 L 278.63 1259.96 L 276.88 1256.46 Z" fill="#0000ff" stroke="#0000ff" stroke-miterlimit="10" pointer-events="all"/>
        <path d="M 668 410 L 494.37 410" fill="none" stroke="#cc0000" stroke-miterlimit="10" pointer-events="stroke"/>
        <path d="M 489.12 410 L 496.12 406.5 L 494.37 410 L 496.12 413.5 Z" fill="#cc0000" stroke="#cc0000" stroke-miterlimit="10" pointer-events="all"/>
        <path d="M 668 410 L 608 410 Q 598 410 594.95 400.48 L 561.05 294.52 Q 558 285 548 285 L 494.37 285" fill="none" stroke="#cc0000" stroke-miterlimit="10" pointer-events="stroke"/>
        <path d="M 489.12 285 L 496.12 281.5 L 494.37 285 L 496.12 288.5 Z" fill="#cc0000" stroke="#cc0000" stroke-miterlimit="10" pointer-events="all"/>
        <path d="M 668 410 L 628 410 Q 618 410 615.25 400.38 L 550.75 174.62 Q 548 165 538 165 L 494.37 165" fill="none" stroke="#cc0000" stroke-miterlimit="10" pointer-events="stroke"/>
        <path d="M 489.12 165 L 496.12 161.5 L 494.37 165 L 496.12 168.5 Z" fill="#cc0000" stroke="#cc0000" stroke-miterlimit="10" pointer-events="all"/>
        <path d="M 668 410 L 648 410 Q 638 410 635.86 400.23 L 560.14 54.77 Q 558 45 548 45 L 494.37 45" fill="none" stroke="#cc0000" stroke-miterlimit="10" pointer-events="stroke"/>
        <path d="M 489.12 45 L 496.12 41.5 L 494.37 45 L 496.12 48.5 Z" fill="#cc0000" stroke="#cc0000" stroke-miterlimit="10" pointer-events="all"/>
        <path d="M 668 410 L 658 410 Q 648 410 638 410 L 608 410 Q 598 410 595.67 419.72 L 570.33 525.28 Q 568 535 558 535 L 494.37 535" fill="none" stroke="#cc0000" stroke-miterlimit="10" pointer-events="stroke"/>
        <path d="M 489.12 535 L 496.12 531.5 L 494.37 535 L 496.12 538.5 Z" fill="#cc0000" stroke="#cc0000" stroke-miterlimit="10" pointer-events="all"/>
        <path d="M 668 410 L 618 410 Q 608 410 606.39 419.87 L 569.61 645.13 Q 568 655 558 655 L 494.37 655" fill="none" stroke="#cc0000" stroke-miterlimit="10" pointer-events="stroke"/>
        <path d="M 489.12 655 L 496.12 651.5 L 494.37 655 L 496.12 658.5 Z" fill="#cc0000" stroke="#cc0000" stroke-miterlimit="10" pointer-events="all"/>
        <path d="M 668 410 L 638 410 Q 628 410 626.38 419.87 L 569.62 765.13 Q 568 775 558 775 L 494.37 775" fill="none" stroke="#cc0000" stroke-miterlimit="10" pointer-events="stroke"/>
        <path d="M 489.12 775 L 496.12 771.5 L 494.37 775 L 496.12 778.5 Z" fill="#cc0000" stroke="#cc0000" stroke-miterlimit="10" pointer-events="all"/>
        <path d="M 668 410 L 648 410 Q 638 410 636.77 419.92 L 579.23 885.08 Q 578 895 568 895 L 494.37 895" fill="none" stroke="#cc0000" stroke-miterlimit="10" pointer-events="stroke"/>
        <path d="M 489.12 895 L 496.12 891.5 L 494.37 895 L 496.12 898.5 Z" fill="#cc0000" stroke="#cc0000" stroke-miterlimit="10" pointer-events="all"/>
        <path d="M 668 410 L 658 410 Q 648 410 647.42 419.98 L 598.58 1255.02 Q 598 1265 588 1265 L 494.37 1265" fill="none" stroke="#cc0000" stroke-miterlimit="10" pointer-events="stroke"/>
        <path d="M 489.12 1265 L 496.12 1261.5 L 494.37 1265 L 496.12 1268.5 Z" fill="#cc0000" stroke="#cc0000" stroke-miterlimit="10" pointer-events="all"/>
        <ellipse cx="33" cy="37.5" rx="7.499999999999999" ry="7.499999999999999" fill="rgb(255, 255, 255)" stroke="#cc6600" pointer-events="all"/>
        <path d="M 33 45 L 33 70 M 33 50 L 18 50 M 33 50 L 48 50 M 33 70 L 18 90 M 33 70 L 48 90" fill="none" stroke="#cc6600" stroke-miterlimit="10" pointer-events="all"/>
        <g transform="translate(-0.5 -0.5)">
            <switch>
                <foreignObject pointer-events="none" width="100%" height="100%" requiredFeatures="http://www.w3.org/TR/SVG11/feature#Extensibility" style="overflow: visible; text-align: left;">
                    <div xmlns="http://www.w3.org/1999/xhtml" style="display: flex; align-items: unsafe flex-start; justify-content: unsafe center; width: 1px; height: 1px; padding-top: 97px; margin-left: 33px;">
                        <div data-drawio-colors="color: rgb(0, 0, 0); " style="box-sizing: border-box; font-size: 0px; text-align: center;">
                            <div style="display: inline-block; font-size: 12px; font-family: Helvetica; color: rgb(0, 0, 0); line-height: 1.2; pointer-events: all; white-space: nowrap;">
                                ACHETEUR
                                <br/>
                                OBLIGÉ
                            </div>
                        </div>
                    </div>
                </foreignObject>
                <text x="33" y="109" fill="rgb(0, 0, 0)" font-family="Helvetica" font-size="12px" text-anchor="middle">
                    ACHET...
                </text>
            </switch>
        </g>
        <path d="M 68 290 L 148 290 Q 158 290 164.33 297.74 L 241.67 392.26 Q 248 400 258 400 L 281.63 400" fill="none" stroke="#006600" stroke-miterlimit="10" pointer-events="stroke"/>
        <path d="M 286.88 400 L 279.88 403.5 L 281.63 400 L 279.88 396.5 Z" fill="#006600" stroke="#006600" stroke-miterlimit="10" pointer-events="all"/>
        <path d="M 68 290 L 138 290 Q 148 290 152.63 298.87 L 263.37 511.13 Q 268 520 274.82 519.99 L 281.63 519.98" fill="none" stroke="#006600" stroke-miterlimit="10" pointer-events="stroke"/>
        <path d="M 286.88 519.97 L 279.89 523.48 L 281.63 519.98 L 279.88 516.48 Z" fill="#006600" stroke="#006600" stroke-miterlimit="10" pointer-events="all"/>
        <path d="M 68 290 L 118 290 Q 128 290 131.71 299.28 L 264.29 630.72 Q 268 640 274.82 639.99 L 281.63 639.98" fill="none" stroke="#006600" stroke-miterlimit="10" pointer-events="stroke"/>
        <path d="M 286.88 639.97 L 279.89 643.48 L 281.63 639.98 L 279.88 636.48 Z" fill="#006600" stroke="#006600" stroke-miterlimit="10" pointer-events="all"/>
        <path d="M 68 290 L 108 290 Q 118 290 120.85 299.58 L 255.15 750.42 Q 258 760 268 759.99 L 281.63 759.98" fill="none" stroke="#006600" stroke-miterlimit="10" pointer-events="stroke"/>
        <path d="M 286.88 759.97 L 279.89 763.48 L 281.63 759.98 L 279.88 756.48 Z" fill="#006600" stroke="#006600" stroke-miterlimit="10" pointer-events="all"/>
        <path d="M 68 290 L 108 290 Q 118 290 120.15 299.77 L 245.85 870.23 Q 248 880 258 880.24 L 281.63 880.81" fill="none" stroke="#006600" stroke-miterlimit="10" pointer-events="stroke"/>
        <path d="M 286.88 880.93 L 279.8 884.26 L 281.63 880.81 L 279.97 877.27 Z" fill="#006600" stroke="#006600" stroke-miterlimit="10" pointer-events="all"/>
        <path d="M 68 290 L 188.12 271.52 Q 198 270 208 270 L 248 270 Q 258 270 268 269.99 L 281.63 269.98" fill="none" stroke="#006600" stroke-miterlimit="10" pointer-events="stroke"/>
        <path d="M 286.88 269.97 L 279.89 273.48 L 281.63 269.98 L 279.88 266.48 Z" fill="#006600" stroke="#006600" stroke-miterlimit="10" pointer-events="all"/>
        <path d="M 68 170 L 108 170 Q 118 170 126.91 174.54 L 292.73 259.07" fill="none" stroke="#ff0080" stroke-miterlimit="10" pointer-events="stroke"/>
        <path d="M 297.4 261.45 L 289.58 261.39 L 292.73 259.07 L 292.76 255.15 Z" fill="#ff0080" stroke="#ff0080" stroke-miterlimit="10" pointer-events="all"/>
        <path d="M 68 170 L 88 170 Q 98 170 104.72 177.4 L 292.12 383.86" fill="none" stroke="#ff0080" stroke-miterlimit="10" pointer-events="stroke"/>
        <path d="M 295.65 387.75 L 288.35 384.92 L 292.12 383.86 L 293.54 380.22 Z" fill="#ff0080" stroke="#ff0080" stroke-miterlimit="10" pointer-events="all"/>
        <path d="M 68 50 L 108 50 Q 118 50 124.97 57.17 L 311.77 249.11" fill="none" stroke="#cc6600" stroke-miterlimit="10" pointer-events="stroke"/>
        <path d="M 315.43 252.87 L 308.04 250.3 L 311.77 249.11 L 313.06 245.41 Z" fill="#cc6600" stroke="#cc6600" stroke-miterlimit="10" pointer-events="all"/>
        <path d="M 68 50 L 98 50 Q 108 50 113.47 58.37 L 317.32 370.29" fill="none" stroke="#cc6600" stroke-miterlimit="10" pointer-events="stroke"/>
        <path d="M 320.19 374.68 L 313.43 370.74 L 317.32 370.29 L 319.29 366.91 Z" fill="#cc6600" stroke="#cc6600" stroke-miterlimit="10" pointer-events="all"/>
    </g>
    <switch>
        <g requiredFeatures="http://www.w3.org/TR/SVG11/feature#Extensibility"/>
        <a transform="translate(0,-5)" xlink:href="https://www.diagrams.net/doc/faq/svg-export-text-problems" target="_blank">
            <text text-anchor="middle" font-size="10px" x="50%" y="100%">
                Text is not SVG - cannot display
            </text>
        </a>
    </switch>
</svg>