<svg width="127" height="111" viewBox="0 0 127 111" fill="none" xmlns="http://www.w3.org/2000/svg">
<path d="M2.06 45V31H6.34C9.42 31 11.32 32.58 11.32 35.18C11.32 36.88 10.5 38.14 9.06 38.8L13.44 45H10.1L6.36 39.34H4.9V45H2.06ZM6.5 33.36H4.9V36.98H6.5C7.7 36.98 8.4 36.28 8.4 35.14C8.4 34.08 7.7 33.36 6.5 33.36ZM20.8789 29.8H18.2989L20.5589 27.1H23.4789L20.8789 29.8ZM15.5389 45V31H23.6989V33.36H18.3789V36.68H22.8989V39.04H18.3789V42.64H23.6989V45H15.5389ZM27.2991 45V31H31.9191C34.9991 31 36.8791 32.58 36.8791 35.18C36.8791 37.76 34.9991 39.34 31.9191 39.34H30.1391V45H27.2991ZM32.0391 33.36H30.1391V36.98H32.0391C33.2391 36.98 33.9591 36.28 33.9591 35.14C33.9591 34.08 33.2391 33.36 32.0391 33.36ZM47.7842 39.76V31H50.6242V39.52C50.6242 43.2 48.4642 45.4 44.9442 45.4C41.4442 45.4 39.2842 43.2 39.2842 39.52V31H42.1242V39.76C42.1242 41.64 43.1842 42.74 44.9642 42.74C46.7042 42.74 47.7842 41.64 47.7842 39.76ZM54.4522 45V31H58.5722C61.4922 31 63.2722 32.44 63.2722 34.8C63.2722 35.94 62.7522 36.92 61.7722 37.56C63.2522 38.22 64.0722 39.42 64.0722 40.88C64.0722 43.44 62.0922 45 58.8722 45H54.4522ZM58.6322 33.36H57.2922V36.52H58.6322C59.7122 36.52 60.3522 35.94 60.3522 34.92C60.3522 33.94 59.7122 33.36 58.6322 33.36ZM59.0322 38.88H57.2922V42.64H59.0322C60.3522 42.64 61.1522 41.94 61.1522 40.76C61.1522 39.56 60.3522 38.88 59.0322 38.88ZM67.2866 45V31H70.1266V42.42H75.4466V45H67.2866ZM78.2459 45V31H81.0859V45H78.2459ZM97.0391 44.64C98.1191 45.62 99.0791 45.98 99.9791 45.98C100.279 45.98 100.679 45.94 100.979 45.82V48.22C100.519 48.4 100.119 48.48 99.4991 48.48C97.9391 48.48 96.4991 47.84 95.1191 46.64L93.4591 45.16C92.8591 45.32 92.2191 45.4 91.5391 45.4C87.1191 45.4 84.0991 42 84.0991 38C84.0991 34 87.1191 30.6 91.5391 30.6C95.9391 30.6 98.9591 34 98.9591 38C98.9591 40.34 97.9191 42.48 96.1991 43.84L97.0391 44.64ZM91.5391 42.74C94.1591 42.74 96.0391 40.68 96.0391 38C96.0391 35.32 94.1591 33.26 91.5391 33.26C88.8991 33.26 87.0191 35.32 87.0191 38C87.0191 40.68 88.8991 42.74 91.5391 42.74ZM110.237 39.76V31H113.077V39.52C113.077 43.2 110.917 45.4 107.397 45.4C103.897 45.4 101.737 43.2 101.737 39.52V31H104.577V39.76C104.577 41.64 105.637 42.74 107.417 42.74C109.157 42.74 110.237 41.64 110.237 39.76ZM116.905 45V31H125.065V33.36H119.745V36.68H124.265V39.04H119.745V42.64H125.065V45H116.905ZM2.06 66V52H10.22V54.36H4.9V57.68H9.42V60.04H4.9V66H2.06ZM13.0194 66V52H17.2994C20.3794 52 22.2794 53.58 22.2794 56.18C22.2794 57.88 21.4594 59.14 20.0194 59.8L24.3994 66H21.0594L17.3194 60.34H15.8594V66H13.0194ZM17.4594 54.36H15.8594V57.98H17.4594C18.6594 57.98 19.3594 57.28 19.3594 56.14C19.3594 55.08 18.6594 54.36 17.4594 54.36ZM25.3438 66L30.6438 52H34.3638L39.6638 66H36.6438L35.3038 62.36H29.7038L28.3638 66H25.3438ZM30.5838 59.94H34.4238L32.5038 54.68L30.5838 59.94ZM42.1256 66V52H45.7656L52.0256 62.12V52H54.8656V66H51.2256L44.9656 55.88V66H42.1256ZM65.3211 63.74C66.9211 63.74 68.1811 62.96 68.9811 61.82L71.2211 63.54C70.1411 65.02 68.4611 66.06 66.4211 66.32L64.6811 69.22H62.1611L63.9211 66.28C60.2811 65.64 57.8811 62.56 57.8811 59C57.8811 55 60.9011 51.6 65.3211 51.6C67.8611 51.6 69.9411 52.74 71.2211 54.44L68.9811 56.18C68.1811 55.04 66.9211 54.26 65.3211 54.26C62.6811 54.26 60.8011 56.32 60.8011 59C60.8011 61.68 62.6811 63.74 65.3211 63.74ZM72.1281 66L77.4281 52H81.1481L86.4481 66H83.4281L82.0881 62.36H76.4881L75.1481 66H72.1281ZM77.3681 59.94H81.2081L79.2881 54.68L77.3681 59.94ZM88.91 66V52H91.75V66H88.91ZM94.7031 64.06L96.7631 62.16C97.6031 63.24 98.7231 63.88 99.8631 63.88C100.983 63.88 101.663 63.28 101.663 62.28C101.663 59.7 95.3031 60.4 95.3031 55.66C95.3031 53.44 97.1431 51.6 99.8231 51.6C101.923 51.6 103.523 52.54 104.723 53.96L102.643 55.84C101.823 54.78 100.903 54.08 99.8431 54.08C98.8431 54.08 98.1831 54.72 98.1831 55.56C98.1831 58.1 104.543 57.38 104.543 62.18C104.503 64.82 102.463 66.4 99.8831 66.4C97.5231 66.4 95.9431 65.54 94.7031 64.06ZM107.821 66V52H115.981V54.36H110.661V57.68H115.181V60.04H110.661V63.64H115.981V66H107.821Z" fill="#161616"/>
<path fill-rule="evenodd" clip-rule="evenodd" d="M51.96 101.7L50.1 103.4H49.62L50.72 101.46H51.96V101.7ZM50.62 108.279H50.22C49.72 108.879 49.16 109.359 48.62 109.359C48.06 109.359 47.78 109.019 47.78 108.279C47.78 107.979 47.82 107.659 47.88 107.379L51.14 106.299C51.78 104.779 51.02 104.119 50.12 104.119C48.58 104.119 46.82 106.819 46.82 108.979C46.82 109.999 47.3 110.559 48.06 110.559C48.94 110.539 49.86 109.679 50.62 108.279ZM49.5012 105C49.9412 105 50.3213 105.34 50.1212 106.12L48.1012 106.66C48.4212 105.7 49.0212 105 49.5012 105ZM43.1421 105.039H44.2221L42.5021 109.759C42.3421 110.159 42.5621 110.559 42.9821 110.559C44.2021 110.559 45.6621 109.519 46.2221 108.039H45.9221C45.4821 108.659 44.5221 109.339 43.8021 109.459L45.3821 105.039H47.0021L47.2021 104.359H45.6221L46.2221 102.659H45.6021L44.4821 104.359L43.1421 104.539V105.039ZM41.6409 104.14C41.8609 104.14 42.161 104.38 42.021 104.82L40.0809 109.52C40.5809 109.44 41.1009 108.96 41.4009 108.52H41.7209C41.2609 109.7 40.2209 110.56 39.3209 110.56C39.1009 110.56 38.7809 110.32 38.9409 109.88L40.7409 105.18C40.2409 105.26 39.7209 105.74 39.4209 106.18H39.1209C39.5809 104.98 40.7009 104.14 41.6409 104.14ZM42.2023 102.94C42.6023 102.94 42.9423 102.62 42.9423 102.2C42.9423 101.8 42.6023 101.46 42.2023 101.46C41.7823 101.46 41.4623 101.8 41.4623 102.2C41.4623 102.6 41.8023 102.94 42.2023 102.94ZM33.4619 106.84C33.9019 105.88 33.7419 105.44 33.4619 105.44C33.2219 105.44 32.9418 105.7 32.6618 106.18H32.3618C32.8218 105.16 33.4219 104.14 34.0819 104.14C34.6419 104.14 34.8419 104.7 34.8419 105.32V106.2C34.9319 106.096 35.0195 105.993 35.1051 105.892L35.1067 105.89L35.108 105.889C35.9529 104.897 36.5981 104.14 37.3419 104.14C37.9219 104.14 38.2219 104.5 38.2219 105.04C38.2219 105.36 38.1219 105.76 37.9019 106.18L36.2419 109.52C36.7419 109.44 37.2619 108.96 37.5619 108.52H37.8619C37.4019 109.72 36.2819 110.56 35.3419 110.56C34.9219 110.56 34.6819 110.12 34.8619 109.76L36.7819 106.06C37.0019 105.64 37.0419 105.36 36.7019 105.36C36.2419 105.36 35.1619 106.12 34.5819 106.82L33.3219 110.14C33.1819 110.48 33.0419 110.56 32.7218 110.56C32.2018 110.56 31.9418 110.22 32.1818 109.68L33.4619 106.84ZM32.1604 105.559C32.3804 104.799 32.2604 104.119 31.6803 104.119C30.957 104.119 30.7305 104.597 30.0296 106.075L29.9803 106.179V105.299C29.9803 104.679 29.7803 104.119 29.2203 104.119C28.5603 104.119 27.9603 105.139 27.5003 106.159H27.8003C28.1203 105.699 28.4203 105.419 28.6603 105.419C28.9403 105.419 29.1003 105.859 28.6603 106.819L27.3803 109.659C27.1403 110.199 27.4003 110.539 27.9203 110.539C28.2403 110.539 28.3803 110.459 28.5203 110.119L29.7803 106.799C30.1403 106.359 30.4603 105.979 30.8603 105.559H32.1604ZM25.8407 106.12C26.0407 105.34 25.6607 105 25.2207 105C24.7407 105 24.1407 105.7 23.8207 106.66L25.8407 106.12ZM26.3395 108.279H25.9395C25.4395 108.879 24.8795 109.359 24.3394 109.359C23.7794 109.359 23.4994 109.019 23.4994 108.279C23.4994 107.979 23.5394 107.659 23.5994 107.379L26.8595 106.299C27.4995 104.779 26.7395 104.119 25.8395 104.119C24.2994 104.119 22.5394 106.819 22.5394 108.979C22.5394 109.999 23.0194 110.559 23.7794 110.559C24.6595 110.539 25.5795 109.679 26.3395 108.279ZM19.9415 105.039H18.8615V104.539L20.2016 104.359L21.3216 102.659H21.9416L21.3416 104.359H22.9216L22.7216 105.039H21.1016L19.5215 109.459C20.2416 109.339 21.2016 108.659 21.6416 108.039H21.9416C21.3816 109.519 19.9215 110.559 18.7015 110.559C18.2815 110.559 18.0615 110.159 18.2215 109.759L19.9415 105.039ZM13.1424 108.699C13.1424 107.24 14.7625 105.28 15.6625 105.28C15.8625 105.28 16.0625 105.3 16.2225 105.36L15.2825 107.879C14.7425 108.539 13.9025 109.339 13.5024 109.339C13.2824 109.339 13.1424 109.139 13.1424 108.699ZM17.603 103.82L18.103 103.86L16.363 107.86C15.943 108.819 16.123 109.259 16.363 109.259C16.603 109.259 16.903 108.979 17.223 108.519H17.523C17.063 109.539 16.463 110.559 15.803 110.559C15.243 110.559 14.903 109.959 15.003 108.879L15.043 108.499L14.9341 108.652C14.2176 109.653 13.5693 110.559 12.9029 110.559C12.3229 110.559 12.0229 110.199 12.0229 109.659C12.0229 107.34 14.563 104.38 16.943 104.38H17.043L17.603 103.82ZM13.0217 105.559C13.2417 104.799 13.1217 104.119 12.5417 104.119C11.8183 104.119 11.5918 104.597 10.8909 106.075L10.8417 106.179V105.299C10.8417 104.679 10.6417 104.119 10.0816 104.119C9.42163 104.119 8.82162 105.139 8.36162 106.159H8.66162C8.98163 105.699 9.28163 105.419 9.50164 105.419C9.78164 105.419 9.94164 105.859 9.50164 106.819L8.22161 109.679C7.98161 110.219 8.24161 110.559 8.76162 110.559C9.08163 110.559 9.22163 110.479 9.36163 110.139L10.6217 106.819C10.9817 106.379 11.3017 105.999 11.7017 105.579H13.0217V105.559ZM4.78008 109.958L4.66008 110.318H0L0.120002 109.938C1.56003 109.678 1.80003 109.558 2.40004 107.938L3.70006 104.458C4.28007 102.838 4.16007 102.718 2.90005 102.458L3.02005 102.098H9.08015L8.72014 104.038H8.28014C8.28014 102.878 8.16014 102.578 7.06012 102.578H6.78011C5.70009 102.578 5.56009 102.738 5.26009 103.578L4.40007 105.918H5.66009C6.50011 105.918 6.82011 105.398 7.20012 104.718H7.64013L6.60011 107.558H6.1601C6.2601 106.698 6.2601 106.358 5.48009 106.358H4.22007L3.64006 107.958C3.01309 109.623 3.19225 109.657 4.68522 109.94C4.71627 109.946 4.74789 109.952 4.78008 109.958Z" fill="black"/>
<path fill-rule="evenodd" clip-rule="evenodd" d="M8.73971 86.4L6.87971 87.74V87.76H6.39972L7.49971 86.16H8.73971V86.4ZM21.7415 95.7798L24.7214 87.8598L24.6214 87.7398L22.5615 87.9798V88.2198L22.9615 88.5198C23.3029 88.7854 23.2125 89.0331 22.9292 89.8089L22.8815 89.9398L20.6015 96.0198C20.4215 96.3798 20.6615 96.8198 21.0815 96.8198C22.0215 96.8198 23.0215 95.9598 23.4815 94.7798H23.1815C22.8615 95.2198 22.2215 95.6998 21.7415 95.7798ZM35.4 89.6798L37.26 87.9798V87.7398H36.02L34.92 89.6798H35.4ZM35.5187 94.5398H35.9187C35.1787 95.9598 34.2587 96.8198 33.3787 96.8198C32.6187 96.8198 32.1387 96.2598 32.1387 95.2398C32.1387 93.0798 33.8987 90.3798 35.4387 90.3798C36.3187 90.3798 37.0987 91.0398 36.4587 92.5598L33.1787 93.6398C33.1187 93.9198 33.0787 94.2398 33.0787 94.5398C33.0787 95.2798 33.3587 95.6198 33.9187 95.6198C34.4587 95.6198 35.0187 95.1398 35.5187 94.5398ZM35.4177 92.3799C35.6177 91.6199 35.2377 91.2799 34.7977 91.2799C34.3377 91.2799 33.7377 91.9799 33.3977 92.9199L35.4177 92.3799ZM29.5377 91.3194H28.4577V90.8194L29.7977 90.6394L30.9177 88.9394H31.5377L30.9377 90.6394H32.5177L32.3177 91.3194H30.6977L29.1177 95.7393C29.8377 95.6193 30.7977 94.9393 31.2377 94.3194H31.5377C30.9777 95.7993 29.5177 96.8393 28.2977 96.8393C27.8777 96.8393 27.6577 96.4393 27.8177 96.0393L29.5377 91.3194ZM27.3376 91.0793C27.4576 90.6393 27.1776 90.3993 26.9376 90.3993C25.9976 90.3993 24.8776 91.2593 24.4176 92.4393H24.7176C25.0176 91.9993 25.5376 91.5193 26.0376 91.4393L24.2376 96.1393C24.0776 96.5793 24.3976 96.8193 24.6176 96.8193C25.5176 96.8193 26.5576 95.9593 27.0176 94.7793H26.7176C26.4176 95.2193 25.8976 95.6993 25.3976 95.7793L27.3376 91.0793ZM28.2591 88.4798C28.2591 88.8798 27.9191 89.2198 27.5191 89.2198C27.1191 89.2198 26.7791 88.8798 26.7791 88.4798C26.7791 88.0798 27.0991 87.7398 27.5191 87.7398C27.9191 87.7398 28.2591 88.0798 28.2591 88.4798ZM18.1612 91.5598C17.2612 91.5598 15.6412 93.5198 15.6412 94.9798C15.6412 95.4198 15.7812 95.6198 16.0212 95.6198C16.4012 95.6198 17.2412 94.8198 17.7812 94.1598L18.7212 91.6398C18.5412 91.5798 18.3612 91.5598 18.1612 91.5598ZM20.6017 90.1399L20.1017 90.0999L19.5417 90.6599H19.4417C17.0617 90.6599 14.5217 93.6198 14.5217 95.9398C14.5217 96.4798 14.8217 96.8398 15.4017 96.8398C16.0681 96.8398 16.7164 95.9335 17.4328 94.932L17.5417 94.7798L17.5017 95.1598C17.4017 96.2398 17.7417 96.8398 18.3017 96.8398C18.9617 96.8398 19.5617 95.8198 20.0217 94.7998H19.7217C19.4017 95.2598 19.1017 95.5398 18.8617 95.5398C18.6217 95.5398 18.4417 95.0998 18.8617 94.1398L20.6017 90.1399ZM10.5206 96.62C9.66062 96.96 9.06062 97.36 9.06062 97.98C9.06062 98.56 9.60062 98.8 10.7206 98.8C12.2206 98.8 13.0406 98.36 13.0406 97.78C13.0406 97.52 12.7006 97.4 11.8006 97.1C11.2206 96.92 10.8006 96.76 10.5206 96.62ZM11.5193 94.1599C11.1193 94.1599 10.9793 93.8199 10.9793 93.4599C10.9793 92.2999 11.5393 90.8599 12.4393 90.8599C12.8393 90.8599 12.9793 91.1999 12.9793 91.5599C12.9593 92.7399 12.3993 94.1599 11.5193 94.1599ZM12.2813 96.0398C13.3813 96.3798 14.0613 96.6398 14.0613 97.3998C14.0613 98.3798 12.2613 99.5397 10.0813 99.5197C8.82132 99.5197 7.74133 99.1798 7.74133 98.3598C7.74133 97.5798 8.46132 96.9398 10.2213 96.4198C9.98132 96.2598 9.88132 96.0598 9.88132 95.7798C9.88132 95.2998 10.3213 94.9198 11.0813 94.5598C10.3413 94.4598 9.86132 93.8998 9.86132 93.0798C9.86132 91.8198 10.9013 90.3798 12.5413 90.3798C12.8813 90.3798 13.1813 90.4598 13.4213 90.6198H15.2213L15.0213 91.2998H13.9613C14.0213 91.4798 14.0613 91.6798 14.0613 91.8998C14.0613 93.1198 13.0813 94.5198 11.5213 94.5998C11.1213 94.8198 10.9213 95.1198 10.9213 95.3598C10.9213 95.6422 11.2485 95.7377 11.9715 95.9487C12.0677 95.9768 12.1709 96.0069 12.2813 96.0398ZM5.93998 92.6199C6.71998 92.6199 6.73998 92.9599 6.61998 93.8199H7.05997L8.09997 90.9799H7.65997C7.27997 91.6599 6.95997 92.1799 6.11998 92.1799H4.39998L5.23998 89.84C5.53998 89 5.67998 88.84 6.75998 88.84H7.51997C8.61997 88.84 8.73997 89.14 8.73997 90.2999H9.17997L9.53996 88.36H3.01999L2.89999 88.72C4.15998 88.98 4.27998 89.1 3.69999 90.7199L2.39999 94.2199C1.79999 95.8399 1.55999 95.9599 0.0999996 96.2199L0 96.5999H7.23997L8.53997 94.5399H8.03997C7.19997 95.3599 6.35998 96.1199 4.71998 96.1199C2.91611 96.1199 2.94824 96.0316 3.48949 94.5448C3.52432 94.4491 3.56129 94.3476 3.59999 94.2399L4.19998 92.6399H5.93998V92.6199Z" fill="black"/>
<path fill-rule="evenodd" clip-rule="evenodd" d="M11.9182 75.4799C12.3182 75.4799 12.6582 75.1399 12.6582 74.7399C12.6582 74.34 12.3182 74 11.9182 74C11.4982 74 11.1782 74.34 11.1782 74.7399C11.1782 75.1599 11.4982 75.4799 11.9182 75.4799ZM17.8403 77.9992C17.8403 77.0392 17.6003 76.6793 16.9203 76.6793C16.0803 76.6793 15.3003 77.5792 14.5203 78.6591L16.2003 74.1595L16.1003 74.0195L14.0403 74.2595V74.4994L14.4403 74.7994C14.7886 75.0703 14.6876 75.3411 14.391 76.1371L14.3603 76.2193L12.5403 80.9789C12.3803 81.3789 12.2003 81.8589 12.2003 81.9789C12.2003 82.5388 12.9603 83.0788 13.6603 83.0788C15.2203 83.0988 17.8403 80.219 17.8403 77.9992ZM35.18 75.9593L37.04 74.2595V74.0195H35.8L34.7 75.9593H35.18ZM35.3005 80.819H35.7005C34.9405 82.2389 34.0205 83.0988 33.1405 83.0788C32.3805 83.0788 31.9005 82.5388 31.9005 81.5189C31.9005 79.3591 33.6605 76.6593 35.2005 76.6593C36.0805 76.6593 36.8605 77.3192 36.2205 78.8391L32.9605 79.919C32.9005 80.199 32.8605 80.519 32.8605 80.819C32.8605 81.5589 33.1405 81.8989 33.7005 81.8989C34.2405 81.8989 34.8005 81.4189 35.3005 80.819ZM35.1986 78.6592C35.3985 77.8993 35.0186 77.5593 34.5786 77.5593C34.0986 77.5593 33.4986 78.2592 33.1786 79.1992L35.1986 78.6592ZM29.2964 77.6004H28.2164V77.1005L29.5564 76.9205L30.6764 75.2206H31.2964L30.6964 76.9205H32.2764L32.0764 77.6004H30.4564L28.8764 82.0201C29.5964 81.9001 30.5564 81.2201 30.9964 80.6002H31.2964C30.7364 82.0801 29.2764 83.12 28.0564 83.12C27.6364 83.12 27.4164 82.72 27.5764 82.3201L29.2964 77.6004ZM27.6602 78.1203C27.8802 77.3604 27.7602 76.6805 27.1802 76.6805C26.4569 76.6805 26.2304 77.1582 25.5295 78.6365L25.4802 78.7403V77.8604C25.4802 77.2404 25.2802 76.6805 24.7202 76.6805C24.0603 76.6805 23.4603 77.7004 23.0003 78.7203H23.3003C23.6203 78.2603 23.9203 77.9804 24.1403 77.9804C24.4203 77.9804 24.5803 78.4203 24.1403 79.3802L22.8603 82.22C22.6203 82.76 22.8803 83.1 23.4003 83.1C23.7203 83.1 23.8603 83.02 24.0003 82.68L25.2602 79.3602C25.6202 78.9203 25.9402 78.5403 26.3402 78.1203H27.6602ZM21.3208 78.6592C21.5208 77.8993 21.1408 77.5593 20.7008 77.5593C20.2208 77.5593 19.6408 78.2592 19.3008 79.1992L21.3208 78.6592ZM21.8195 80.819H21.4195C20.9195 81.4189 20.3595 81.8989 19.8195 81.8989C19.2595 81.8989 18.9796 81.5589 18.9796 80.819C18.9796 80.519 19.0196 80.199 19.0796 79.919L22.3395 78.8391C22.9795 77.3192 22.2195 76.6593 21.3195 76.6593C19.7795 76.6593 18.0196 79.3591 18.0196 81.5189C18.0196 82.5388 18.4996 83.0788 19.2595 83.0788C20.1395 83.0988 21.0595 82.2389 21.8195 80.819ZM13.4211 81.5796C13.4211 81.8396 13.8811 82.1396 14.2011 82.1396C15.5011 82.1396 16.7211 79.7998 16.7011 78.4999C16.7011 78.0599 16.4811 77.8799 16.1811 77.8799C15.7011 77.8799 14.8211 78.5999 14.2611 79.2798L13.7411 80.6797C13.5611 81.1397 13.4211 81.4996 13.4211 81.5796ZM11.3215 76.6805C11.5615 76.6805 11.8415 76.9204 11.7215 77.3604L9.80153 82.06C10.3015 81.98 10.8215 81.5001 11.1215 81.0601H11.4215C10.9615 82.24 9.92153 83.1 9.02154 83.1C8.78154 83.1 8.46155 82.86 8.62155 82.42L10.4215 77.7204C9.92153 77.8004 9.40154 78.2803 9.10154 78.7203H8.80154C9.26154 77.5404 10.3815 76.6805 11.3215 76.6805ZM3.01996 74.6005H7.3199L7.1999 74.9805C5.73992 75.2405 5.49992 75.3605 4.89993 76.9804L3.61995 80.5001C2.99996 82.18 3.15996 82.3799 4.25994 82.3799C5.61896 82.3799 6.51009 81.3922 7.2882 80.5298C7.34601 80.4657 7.40319 80.4023 7.45989 80.3401H7.95989L6.53991 82.8599H0L0.119998 82.4999C1.55998 82.2399 1.79997 82.12 2.39997 80.5001L3.69995 76.9604C4.27994 75.3405 4.15994 75.2205 2.89996 74.9605L3.01996 74.6005Z" fill="black"/>
<rect width="55" height="20" fill="white"/>
<path d="M17.7649 17.5888C17.7716 17.5888 17.7782 17.579 17.7782 17.579C17.8313 17.5397 17.8844 17.4907 17.9309 17.4319C17.9243 17.4319 17.9176 17.4319 17.911 17.422C17.8645 17.4711 17.8114 17.5299 17.7649 17.5888Z" fill="#000091"/>
<path d="M25.1222 15.1098L25.006 15.2098C25.0724 15.1932 25.1222 15.1765 25.1222 15.1098Z" fill="#000091"/>
<path fill-rule="evenodd" clip-rule="evenodd" d="M22.7435 17.6421C22.9566 17.4277 23.1697 17.2004 23.3828 16.9665H23.3764C23.7767 16.5119 24.1642 16.0766 24.6291 15.6804C24.7712 15.5505 24.9068 15.4401 25.0359 15.3491C25.0549 15.3301 25.0646 15.3016 25.0741 15.2738C25.084 15.2447 25.0937 15.2163 25.1134 15.1997C25.0214 15.2349 24.948 15.2904 24.8743 15.3463C24.7979 15.4041 24.7211 15.4622 24.6227 15.4985C24.5839 15.4985 24.5452 15.4596 24.5839 15.4206C24.7195 15.3232 24.8551 15.2192 24.9843 15.1153H24.9585C24.9197 15.1153 24.9197 15.0763 24.9197 15.0374C24.439 14.961 24.0698 15.2898 23.7392 15.5841L23.7186 15.6025C23.6671 15.6283 23.6185 15.6027 23.5803 15.5825C23.561 15.5723 23.5444 15.5635 23.5313 15.5635C23.2389 15.6615 22.9867 15.8423 22.7329 16.0243C22.499 16.1919 22.2638 16.3605 21.9944 16.4664V16.3884C21.903 16.42 21.8126 16.4611 21.7219 16.5023C21.5886 16.563 21.4548 16.6238 21.3164 16.6548C21.0637 16.7134 20.8292 16.7059 20.602 16.6985C20.5274 16.6961 20.4535 16.6937 20.38 16.6937C19.9665 16.7347 19.5581 16.8233 19.1503 16.9118L19.0175 16.9406C19.011 16.9438 19.0046 16.9454 18.9981 16.9471C18.9917 16.9487 18.9852 16.9503 18.9788 16.9536C18.7334 17.0185 18.5074 17.1095 18.2813 17.2394L18.2555 17.2524C18.2466 17.2643 18.2378 17.2748 18.2295 17.2846C18.2197 17.2962 18.2108 17.3068 18.2038 17.3173C18.1264 17.4083 18.0553 17.4862 17.9455 17.5447C17.7834 17.6262 17.6433 17.752 17.5054 17.8757C17.4457 17.9293 17.3861 17.9828 17.3256 18.0318C17.3127 18.0448 17.2869 18.0513 17.2675 18.0513C17.0673 18.2462 16.8671 18.4411 16.6605 18.6294C16.6476 18.6424 16.5895 18.6489 16.5443 18.6424C16.5443 18.6424 16.5507 18.6424 16.5507 18.6359L16.5701 18.5969L16.667 18.4411C16.6863 18.4118 16.7041 18.3826 16.7218 18.3534C16.7396 18.3241 16.7574 18.2949 16.7767 18.2657C16.8283 18.1878 16.8801 18.1097 16.9382 18.0383C16.9511 18.0188 16.9511 17.9994 16.9382 17.9864C16.9253 17.9734 16.9059 17.9669 16.8865 17.9669C17.0738 17.785 17.2933 17.6291 17.5193 17.4927V17.4862C17.4935 17.4927 17.4548 17.4732 17.4741 17.4472C17.4931 17.4234 17.5086 17.3961 17.5231 17.3704L17.5387 17.3433C17.5419 17.3368 17.5436 17.3319 17.5452 17.3271C17.5468 17.3222 17.5484 17.3173 17.5516 17.3108C17.5484 17.3043 17.5436 17.2994 17.5387 17.2946C17.5339 17.2897 17.529 17.2848 17.5258 17.2783L17.4866 17.3042C17.4398 17.3348 17.3917 17.3663 17.3515 17.4018C17.3229 17.4263 17.2963 17.46 17.2691 17.4945C17.2098 17.5694 17.1472 17.6486 17.0544 17.6486C17.0479 17.6486 17.0157 17.6486 16.9963 17.6421C16.9769 17.6421 16.964 17.6356 16.9575 17.6291C16.9575 17.6259 16.9575 17.6242 16.9583 17.6234C16.9592 17.6226 16.9608 17.6226 16.964 17.6226C16.964 17.6226 16.9705 17.6161 16.9705 17.6096C16.9705 17.6096 16.9705 17.6031 16.9769 17.6031C16.9801 17.5966 16.9834 17.5918 16.9866 17.5869C16.9898 17.582 16.9931 17.5771 16.9963 17.5706C16.9995 17.5641 17.0027 17.5593 17.006 17.5544C17.0092 17.5495 17.0124 17.5447 17.0157 17.5382C17.0189 17.5349 17.0205 17.53 17.0221 17.5252C17.0237 17.5203 17.0253 17.5154 17.0286 17.5122L17.0359 17.4988C17.0423 17.4874 17.0499 17.4738 17.0544 17.4602C17.0576 17.4537 17.0609 17.4489 17.0641 17.444C17.0673 17.4391 17.0706 17.4342 17.0738 17.4277C17.0835 17.4147 17.0915 17.4001 17.0996 17.3855C17.1077 17.3709 17.1158 17.3563 17.1254 17.3433C17.1319 17.3303 17.1384 17.3173 17.1513 17.3043C17.1577 17.2913 17.1642 17.28 17.1706 17.2686C17.1771 17.2572 17.1836 17.2459 17.19 17.2329C17.2094 17.2004 17.19 17.1744 17.1642 17.1679C17.2352 17.077 17.3192 16.999 17.4225 16.9406H17.4096C17.4987 16.8957 17.5904 16.8432 17.6815 16.7911C17.7352 16.7603 17.7896 16.7291 17.8422 16.7002C17.8616 16.6807 17.881 16.6613 17.9068 16.6483C17.6937 16.7197 17.5 16.8172 17.3127 16.9471C17.3127 16.9471 17.261 16.9665 17.2481 16.9795C17.2481 16.9795 17.2094 16.9925 17.1577 16.9471C17.1513 16.9406 17.1513 16.9341 17.1513 16.9211C17.1737 16.8759 17.22 16.846 17.27 16.8137C17.3064 16.7902 17.3447 16.7655 17.3773 16.7327C17.416 16.7327 17.4483 16.7327 17.4483 16.7717C18.192 16.1885 19.1091 16.0536 20.0292 15.9182C20.5951 15.8349 21.1622 15.7515 21.6909 15.5635C21.7458 15.5245 21.8023 15.4872 21.8588 15.4498C21.9153 15.4125 21.9718 15.3751 22.0267 15.3361C22.1209 15.2969 22.2053 15.2298 22.2947 15.1587C22.383 15.0884 22.4762 15.0143 22.5885 14.9594C22.8856 14.7321 23.1116 14.4722 23.2278 14.089C23.2278 14.05 23.1891 14.011 23.1891 14.011C22.6983 14.5372 22.1365 14.9529 21.5359 15.2582C20.9633 15.5604 20.3497 15.6052 19.7423 15.6495C19.5141 15.6661 19.2867 15.6827 19.0627 15.7129C19.1014 15.6349 19.1789 15.6349 19.25 15.6349C19.25 15.5427 19.2942 15.503 19.3509 15.4521C19.366 15.4385 19.3821 15.424 19.3985 15.4076H19.5083C19.5276 15.4076 19.5373 15.3881 19.547 15.3686C19.5567 15.3491 19.5664 15.3297 19.5858 15.3297C19.6633 15.3297 19.773 15.2907 19.7343 15.2907C19.6751 15.2145 19.589 15.2447 19.494 15.2779C19.4027 15.3099 19.3031 15.3448 19.2112 15.2907C19.2454 15.2532 19.2556 15.2082 19.265 15.1673C19.2751 15.1231 19.2841 15.0836 19.321 15.0633H19.4695C19.4695 14.9854 19.547 14.9139 19.547 14.9139C19.8838 14.7114 20.209 14.5346 20.5281 14.3611C20.7413 14.2452 20.952 14.1307 21.1614 14.011C21.119 14.011 21.0815 14.0285 21.045 14.0454C20.987 14.0723 20.9318 14.0979 20.8644 14.05C20.9031 14.05 20.9031 14.0224 20.9031 13.9948C20.9031 13.9672 20.9031 13.9396 20.9419 13.9396C21.1841 13.8749 21.3997 13.77 21.62 13.6628C21.7754 13.5872 21.9332 13.5104 22.1042 13.4459C22.0534 13.4459 22.0065 13.4596 21.9607 13.4729C21.8725 13.4985 21.7887 13.5229 21.6909 13.4459C21.7166 13.433 21.7373 13.4166 21.7577 13.4003C21.799 13.3675 21.8392 13.3355 21.9169 13.3355V13.2251C21.9169 13.1861 21.9557 13.1861 21.9944 13.1861C21.9557 13.1861 21.9169 13.1471 21.9169 13.1471C21.9375 13.1059 21.9779 13.0974 22.0229 13.0879C22.0629 13.0795 22.1065 13.0703 22.143 13.0367C22.1042 13.0367 22.0332 13.0367 22.0332 12.9977C22.143 12.8483 22.3302 12.8094 22.5175 12.7704C22.4981 12.7314 22.461 12.7314 22.4287 12.7314C22.3964 12.7314 22.369 12.7314 22.369 12.6924C22.369 12.6535 22.4077 12.6535 22.4465 12.6535H22.369C22.3082 12.6229 22.3189 12.5683 22.3264 12.5305C22.3284 12.5201 22.3302 12.5111 22.3302 12.5041C22.4819 12.3253 22.5318 12.1144 22.5814 11.9046C22.6057 11.8019 22.6299 11.6994 22.666 11.6012C22.6273 11.6012 22.5885 11.6012 22.5885 11.5622C22.2254 11.9652 21.6499 12.1179 21.1032 12.263L21.0516 12.2767H20.8644C20.6771 12.3547 20.4123 12.3547 20.2251 12.2377C20.136 12.191 20.0725 12.1326 20.0039 12.0695C19.9581 12.0274 19.91 11.9832 19.8505 11.9389C19.547 11.7506 19.25 11.6012 18.9142 11.4842C17.9778 11.1855 17.0027 11.0296 16.0277 11.0685C16.2999 10.9187 16.5891 10.8592 16.8821 10.7988C17.0338 10.7676 17.1865 10.7361 17.3385 10.6918C17.4344 10.6635 17.5294 10.6344 17.6239 10.6054C18.1595 10.4412 18.6791 10.2819 19.25 10.315C19.1753 10.2885 19.0796 10.2981 18.9915 10.3069C18.9502 10.3111 18.9105 10.315 18.8754 10.315C18.4438 10.2829 18.0078 10.379 17.5528 10.4793C17.4564 10.5005 17.3592 10.5219 17.261 10.5424C17.0829 10.5795 16.9134 10.6327 16.7438 10.6861C16.5568 10.7448 16.3695 10.8037 16.1697 10.8412C16.0831 10.8711 16.0135 10.9219 15.9458 10.9715C15.8368 11.0512 15.7324 11.1275 15.5692 11.1075V10.9906C15.9437 10.5359 16.3957 10.0877 16.9963 10.0487C17.5768 9.95418 18.1242 10.0215 18.6952 10.0918C18.7911 10.1036 18.8877 10.1155 18.9852 10.1267C19.4533 10.1643 19.8912 10.2687 20.3632 10.3813L20.4123 10.393C20.5157 10.393 20.5738 10.4839 20.63 10.572C20.6758 10.6436 20.7203 10.7133 20.7869 10.7308C20.8788 10.7625 20.9707 10.7684 21.0627 10.7743C21.1968 10.7829 21.3308 10.7915 21.4649 10.8802C21.4649 10.8539 21.4605 10.8284 21.4562 10.8032C21.4476 10.7534 21.4392 10.7045 21.4649 10.6528C21.5482 10.569 21.6437 10.5915 21.7378 10.6136C21.8114 10.6309 21.884 10.6481 21.9492 10.6138C22.154 10.4867 21.9619 10.2916 21.7697 10.0964C21.677 10.0022 21.5843 9.908 21.5359 9.82137C21.5359 9.7824 21.5747 9.74342 21.5747 9.74342C21.6595 9.81945 21.7385 9.89813 21.8168 9.97613C22.0129 10.1713 22.2047 10.3623 22.4723 10.4969C22.6596 10.5749 23.1116 10.6853 23.0341 10.4579C22.9015 10.1635 22.6749 9.90815 22.4461 9.65037C22.3519 9.5442 22.2573 9.4376 22.1688 9.3277V9.17831C22.1099 9.17831 22.0958 9.15582 22.0782 9.12793C22.0727 9.1191 22.0668 9.10973 22.059 9.10036V8.95096C21.9643 8.90128 21.9431 8.82257 21.9218 8.74343C21.9097 8.6984 21.8975 8.65323 21.8717 8.61319C21.807 8.50829 21.8024 8.37921 21.7976 8.24616C21.7937 8.14028 21.7898 8.03189 21.7555 7.93115C21.678 7.7038 21.6457 7.51543 21.607 7.28808C21.5649 7.0555 21.5187 6.83311 21.4734 6.61538C21.3934 6.23115 21.3165 5.86139 21.2712 5.4758C21.2114 4.92468 21.4897 4.45857 21.7742 3.98209C21.8586 3.84084 21.9435 3.69866 22.0203 3.5531C22.285 3.09841 22.5821 2.65021 23.0728 2.34492C23.1799 1.90144 23.4713 1.53212 23.7612 1.16462L23.7832 1.13673C24.0693 0.7801 24.5471 0.56208 24.8993 0.401401L24.9391 0.383241C25.4621 0.149399 25.9335 0 25.94 0H0V20H18.404C18.8962 19.6432 19.3854 19.418 19.9677 19.15C20.2334 19.0278 20.5185 18.8966 20.8321 18.7399C20.8985 18.7065 20.9774 18.6676 21.065 18.6245C21.5906 18.3659 22.428 17.9539 22.7435 17.6421ZM16.9037 14.9438C16.8307 14.9511 16.7533 14.9589 16.7825 14.9002C16.8096 14.7688 16.9442 14.7293 17.0757 14.6909C17.132 14.6744 17.1877 14.6581 17.2341 14.6348L17.2553 14.6238L17.2709 14.6156C17.3437 14.5769 17.4328 14.5295 17.4986 14.5571C17.543 14.6202 17.598 14.6365 17.6514 14.6523C17.6912 14.6641 17.7301 14.6756 17.7631 14.706C17.6236 14.8461 17.4607 14.8599 17.2955 14.8739C17.1858 14.8832 17.0752 14.8926 16.9696 14.9391C16.9506 14.9391 16.9274 14.9414 16.9037 14.9438ZM11.1906 14.0304C11.1906 14.0693 11.2293 14.1083 11.2293 14.1083C12.1334 13.0885 12.9535 12.2181 14.1159 11.4971C14.147 11.484 14.1354 11.5003 14.12 11.5219C14.0971 11.5542 14.0657 11.5983 14.1546 11.575C14.5394 11.4873 14.7123 11.1576 14.8804 10.8369C14.9239 10.7539 14.967 10.6716 15.0135 10.5942C15.1898 10.3073 15.4403 10.1236 15.6927 9.9384C15.8747 9.80486 16.0577 9.67059 16.2146 9.49641C16.2146 9.53539 16.2146 9.57436 16.1758 9.61333C16.2146 9.65231 16.2533 9.65231 16.2921 9.65231C16.3602 9.60091 16.4346 9.57964 16.5058 9.55925C16.5967 9.53325 16.6826 9.50869 16.7441 9.42496C16.447 9.30804 16.0661 9.26907 15.769 9.38599C14.9812 9.76273 14.3096 10.3668 13.6703 11.0489C13.2828 11.4581 12.8825 11.8413 12.3917 12.1076C12.0559 12.7832 11.6814 13.3873 11.1906 14.0304ZM14.3432 11.6145C14.3229 11.6552 14.3027 11.6763 14.2834 11.6965C14.2658 11.7149 14.2489 11.7326 14.2335 11.7635C14.1948 11.8411 14.1561 11.8735 14.0851 11.9124C14.0464 11.9124 14.0077 11.9124 14.0077 11.8735C14.0464 11.7246 14.1561 11.5757 14.3045 11.5368C14.3432 11.5433 14.3432 11.5822 14.3432 11.6145ZM15.9945 17.3831C16.0267 17.3506 16.0654 17.3116 16.0848 17.2726C16.1171 17.1947 15.9171 17.2142 15.8848 17.2337C15.8555 17.2572 15.8369 17.2808 15.8144 17.3093L15.8074 17.3181C15.7805 17.3491 15.749 17.3777 15.717 17.4068C15.6953 17.4266 15.6734 17.4465 15.6526 17.4675C15.5622 17.5585 15.4719 17.6494 15.3751 17.7338C15.3106 17.7923 15.5171 17.8183 15.5622 17.7793C15.6138 17.7403 15.659 17.6949 15.7042 17.6494C15.7214 17.6494 15.7386 17.6465 15.75 17.6446L15.7579 17.6433L15.7622 17.6429C15.8692 17.607 15.9488 17.5325 16.0262 17.4601L16.0461 17.4415C16.0719 17.4155 16.0396 17.3896 15.9945 17.3831ZM15.4106 16.9607C15.4099 16.9608 15.4094 16.961 15.409 16.9613C15.4082 16.9621 15.4082 16.9638 15.4082 16.967C15.3686 16.9942 15.3295 17.0219 15.2905 17.0495C15.1895 17.1209 15.0891 17.1919 14.982 17.2528C14.8796 17.3105 14.7746 17.3604 14.6686 17.4107C14.6075 17.4397 14.5462 17.4688 14.4848 17.4997C14.4848 17.4997 14.4848 17.4932 14.4783 17.4932C14.4654 17.4737 14.4396 17.4672 14.4138 17.4802C14.2717 17.5581 14.149 17.6621 14.0392 17.7725C14.0199 17.7855 14.0005 17.805 13.9876 17.8244L13.9294 17.8829V17.8894C13.9036 17.9154 13.8778 17.9414 13.8455 17.9803C13.8388 17.9871 13.8336 17.9938 13.8287 18.0003C13.8193 18.0125 13.8107 18.0238 13.7938 18.0323C13.768 18.0453 13.7034 18.0453 13.7099 18.0063V17.9998C13.6905 18.0128 13.6647 18.0258 13.6453 18.0323C13.6356 18.0388 13.6259 18.0437 13.6163 18.0485C13.6066 18.0534 13.5969 18.0583 13.5872 18.0648C13.5807 18.0583 13.5678 18.0583 13.5614 18.0583C13.5549 18.0583 13.542 18.0583 13.5355 18.0648C13.5205 18.0778 13.5054 18.09 13.4903 18.1023C13.4602 18.1269 13.4301 18.1514 13.3999 18.1817C13.3224 18.2532 13.2514 18.3311 13.1804 18.4155C13.1804 18.4155 13.1804 18.422 13.1739 18.422C13.1739 18.4253 13.1723 18.4269 13.1707 18.4285C13.1691 18.4302 13.1675 18.4318 13.1675 18.435L13.1545 18.448C13.1521 18.4505 13.1505 18.453 13.1492 18.4551C13.1471 18.4585 13.1456 18.461 13.1416 18.461L13.1352 18.4675C13.1287 18.4805 13.1223 18.4935 13.1093 18.5065C13.1029 18.513 13.09 18.5195 13.077 18.5195C13.0706 18.513 13.0641 18.5065 13.0641 18.5C13.0609 18.4967 13.0593 18.4935 13.0577 18.4902C13.0561 18.487 13.0544 18.4837 13.0512 18.4805C13.0448 18.4708 13.0399 18.461 13.0351 18.4513C13.0302 18.4415 13.0254 18.4318 13.0189 18.422V18.4155C13.0189 18.4123 13.0173 18.409 13.0157 18.4058C13.0141 18.4026 13.0125 18.3993 13.0125 18.3961L13.1287 18.2596L13.1352 18.2532C13.1416 18.2467 13.1481 18.2386 13.1545 18.2304C13.161 18.2223 13.1675 18.2142 13.1739 18.2077C13.1836 18.1947 13.1949 18.1817 13.2062 18.1687C13.2175 18.1557 13.2288 18.1427 13.2385 18.1297C13.2417 18.1232 13.2449 18.1184 13.2482 18.1135C13.2514 18.1086 13.2546 18.1038 13.2579 18.0973C13.2966 18.0453 13.3354 17.9933 13.3741 17.9349V17.9284C13.3806 17.9219 13.387 17.9154 13.387 17.9024C13.4064 17.8764 13.4258 17.8504 13.4387 17.8244L13.4774 17.7465V17.74L13.4839 17.7335C13.4839 17.7303 13.4855 17.7286 13.4871 17.727C13.4887 17.7254 13.4903 17.7238 13.4903 17.7205C13.4968 17.7043 13.5032 17.6897 13.5097 17.6751C13.5161 17.6605 13.5226 17.6458 13.5291 17.6296V17.6231L13.5355 17.5971C13.5388 17.5906 13.5404 17.5841 13.542 17.5776C13.5436 17.5711 13.5452 17.5646 13.5485 17.5581V17.5516C13.5517 17.5419 13.5533 17.5321 13.5549 17.5224C13.5565 17.5127 13.5581 17.5029 13.5614 17.4932C13.5614 17.4867 13.5614 17.4737 13.5549 17.4672C13.5937 17.3957 13.6453 17.3308 13.7034 17.2658C13.7002 17.2658 13.697 17.2674 13.6937 17.2691C13.6919 17.27 13.69 17.2709 13.6882 17.2716C13.6868 17.272 13.6854 17.2723 13.6841 17.2723C13.6553 17.2904 13.6306 17.3145 13.6054 17.339C13.5853 17.3586 13.5649 17.3784 13.542 17.3957C13.5032 17.4282 13.4258 17.3762 13.4774 17.3373C13.5097 17.3113 13.5355 17.2853 13.5613 17.2593C13.5613 17.2593 13.5614 17.2528 13.5678 17.2528C13.5936 17.2295 13.6183 17.2031 13.6432 17.1765C13.6808 17.1364 13.7188 17.0957 13.7615 17.0645C13.8068 17.032 13.839 17.006 13.8778 16.9735C13.8842 16.967 13.8907 16.9605 13.8972 16.9605C13.923 16.928 13.9488 16.8956 13.9811 16.8631C13.9811 16.8631 13.9876 16.8631 13.9876 16.8566C14.2093 16.6415 14.5209 16.5656 14.839 16.4882C15.0396 16.4394 15.2428 16.3899 15.4276 16.3045C15.532 16.261 15.6484 16.2781 15.7635 16.295C15.8548 16.3084 15.9453 16.3217 16.0282 16.3045C16.1379 16.3045 16.2542 16.3045 16.3639 16.3824C16.1086 16.5184 15.8649 16.6739 15.6238 16.8277C15.554 16.8723 15.4843 16.9168 15.4147 16.9605C15.4129 16.9605 15.4116 16.9605 15.4106 16.9607ZM16.2176 14.3132C16.1874 14.3167 16.1678 14.3189 16.1846 14.3358C16.2943 14.4463 16.5204 14.4073 16.6753 14.3228C16.7851 14.2449 16.9014 14.2449 17.0499 14.2449C17.0886 14.2449 17.0886 14.1734 17.0886 14.1345C17.1984 14.1734 17.2759 14.1734 17.3857 14.1734C18.2833 13.9851 19.1486 13.7967 19.9751 13.381C19.1388 12.7347 18.1077 12.4468 17.0978 12.1649C16.9302 12.1181 16.7632 12.0715 16.5978 12.0234C16.6342 12.0234 16.6706 12.0355 16.7072 12.0477C16.781 12.0723 16.8559 12.0973 16.9336 12.0234C16.8312 11.9417 16.7171 11.926 16.6041 11.9106C16.5106 11.8977 16.4179 11.885 16.3331 11.835C16.3419 11.835 16.3525 11.8371 16.3639 11.8393C16.4026 11.8467 16.4517 11.8562 16.4816 11.7961C16.2855 11.6974 16.0893 11.6639 15.8913 11.6301C15.7894 11.6127 15.6871 11.5952 15.584 11.5687C15.7713 11.5297 15.8875 11.3803 15.8875 11.192C15.8875 11.153 15.81 11.153 15.7713 11.153C15.3257 11.3803 15.0222 11.7961 14.8349 12.2832C15.0038 12.3826 15.1857 12.3711 15.3641 12.3598C15.4654 12.3534 15.5656 12.347 15.6615 12.3612C15.5768 12.4416 15.4545 12.4635 15.3368 12.4845C15.293 12.4923 15.2498 12.5 15.2095 12.5106C15.0932 12.5366 14.9835 12.621 15.0222 12.6989C15.048 12.7314 15.0739 12.7444 15.1062 12.7509C15.0222 12.7769 14.9447 12.8159 14.8737 12.8873C14.98 12.971 15.0896 12.9549 15.1978 12.9389C15.2408 12.9326 15.2835 12.9263 15.3257 12.9263C15.3257 12.9735 15.3567 12.9895 15.3889 13.0062C15.4054 13.0147 15.4223 13.0235 15.4355 13.0367C15.2482 13.1082 15.0997 13.2641 15.0609 13.3745C15.0147 13.487 14.9292 13.5601 14.8445 13.6326C14.7874 13.6815 14.7306 13.73 14.6864 13.7902V13.9071C14.5617 14.0177 14.4334 14.1165 14.307 14.2139C14.0472 14.414 13.7949 14.6084 13.5951 14.888C13.6338 14.888 13.6338 14.9269 13.6338 14.9659C13.5981 15.0198 13.5473 15.0572 13.4991 15.0926C13.4427 15.134 13.3899 15.1727 13.3691 15.2322C13.3691 15.2712 13.3691 15.3102 13.4078 15.3102C13.6448 15.2319 13.8498 15.1 14.0508 14.9707C14.2332 14.8534 14.4123 14.7382 14.6089 14.6671C14.7696 14.6285 14.9095 14.5556 15.046 14.4845C15.1618 14.4242 15.2752 14.3651 15.3967 14.3293C15.4904 14.3099 15.5937 14.2823 15.697 14.2546C15.8003 14.227 15.9037 14.1994 15.9973 14.1799C15.9973 14.2189 15.9973 14.2579 16.036 14.2579H16.3331C16.3148 14.3021 16.2571 14.3087 16.2176 14.3132Z" fill="#000091"/>
<path d="M55 0H33.4884C33.4884 0 33.5274 0.00650195 33.69 0.0910273C33.8656 0.182055 34.0932 0.305592 34.2297 0.377113C34.5094 0.520156 34.776 0.702211 34.9516 0.981795C35.0296 1.09233 35.1401 1.3199 35.0686 1.46944C34.9906 1.658 34.9516 1.96359 34.763 2.03511C34.5354 2.15215 34.2362 2.15215 33.9696 2.11313C33.8201 2.11313 33.6705 2.07412 33.5144 2.03511C34.0802 2.26268 34.6134 2.52926 34.9906 3.05592C35.0296 3.13394 35.1792 3.16645 35.3287 3.16645C35.3677 3.16645 35.3677 3.24447 35.3677 3.27698C35.2897 3.35501 35.2182 3.39402 35.2572 3.50455H35.3677C35.5563 3.42653 35.5173 3.04941 35.7839 3.16645C35.9725 3.27698 36.0505 3.54356 35.9335 3.73212C35.7839 3.88166 35.6344 3.9987 35.4783 4.10923C35.4393 4.18726 35.4393 4.29779 35.4783 4.37581C35.5888 4.52536 35.6279 4.6749 35.6669 4.83095C35.7839 5.09753 35.8164 5.39662 35.9335 5.6632C36.0831 6.22887 36.2326 6.79454 36.2001 7.36671C36.2001 7.6658 36.0505 7.93238 36.1611 8.23797C36.2391 8.53706 36.4277 8.76463 36.5773 9.03121C36.7268 9.25878 36.8764 9.40832 36.9935 9.63589C37.2211 10.013 37.6373 10.3901 37.4487 10.8453C37.3381 11.1118 36.9219 11.0728 36.6553 11.2224C36.4277 11.4109 36.6163 11.7165 36.7334 11.9051C36.9219 12.2432 36.5057 12.4707 36.2391 12.5878C36.3172 12.7048 36.4667 12.6658 36.5057 12.7373C36.5448 12.9259 36.7334 13.0364 36.6163 13.2315C36.4667 13.459 36.0115 13.5696 36.2391 13.9142C36.3887 14.1808 36.2912 14.4733 36.2001 14.7464C36.0896 15.0845 35.7839 15.2341 35.5173 15.3121C35.2897 15.3901 35.0231 15.3901 34.802 15.3511C34.724 15.3121 34.6524 15.2731 34.5744 15.2731C33.9306 15.1951 33.2868 15.013 32.6495 15.013C32.461 15.052 32.2724 15.0845 32.1228 15.1625C31.9537 15.2861 31.7977 15.4226 31.6676 15.5657C31.6676 15.5657 31.6676 15.5657 31.6611 15.5722C31.6351 15.6047 31.6026 15.6307 31.5766 15.6632C31.5636 15.6827 31.544 15.7022 31.531 15.7217C31.518 15.7347 31.5115 15.7477 31.4985 15.7607C31.388 15.8973 31.2904 16.0468 31.1994 16.1964C31.1929 16.2094 31.1864 16.2159 31.1799 16.2224C31.1734 16.2419 31.1604 16.2549 31.1474 16.2744C31.0238 16.5019 30.9328 16.736 30.8612 16.9701C30.6011 17.8349 30.7182 18.5761 30.9003 18.7581C30.9523 18.8101 32.1488 19.1808 32.9812 19.5514C33.3714 19.7269 33.6445 19.857 33.8721 20H54.9935V0H55Z" fill="#E1000F"/>
<path d="M34.7665 7.29462C34.9161 7.33358 35.1437 7.33358 35.1437 7.4115C35.0657 7.7102 34.6169 7.78812 34.3892 8.09331H34.2722C34.1616 8.17123 34.1941 8.35954 34.0835 8.35954C33.973 8.32058 33.8559 8.35954 33.7453 8.39851C33.8949 8.54786 34.0835 8.66474 34.3112 8.62578C34.3502 8.62578 34.4218 8.7037 34.4218 8.77513C34.4218 8.77513 34.4608 8.77513 34.4998 8.73617C34.5388 8.73617 34.5779 8.73617 34.5779 8.77513V8.92448C34.4673 9.07383 34.2722 9.0024 34.1226 9.03486C34.4283 9.11279 34.7275 9.11279 34.9941 9.03486C35.2218 8.95694 34.9941 8.58032 35.1437 8.39201C35.0657 8.39201 35.1437 8.27513 35.0657 8.27513C35.1437 8.19721 35.2153 8.08682 35.2933 8.04786C35.3714 8.04786 35.4819 8.0089 35.521 7.93098C35.521 7.85306 35.3714 7.82059 35.4039 7.74267C35.6315 7.59332 35.8202 7.36605 35.7421 7.13877C35.7031 7.02189 35.4039 7.02189 35.2153 6.95046C35.0267 6.87904 34.799 6.95046 34.5714 6.98943C34.3827 6.98943 34.1941 7.10631 34.0055 7.13877C33.7388 7.2167 33.5112 7.36605 33.29 7.5154C33.5567 7.40501 33.8169 7.36605 34.1226 7.28812C34.3502 7.29462 34.5388 7.24267 34.7665 7.29462" fill="#808080"/>
</svg>
