<svg width="282" height="320" viewBox="0 0 282 320" fill="none" xmlns="http://www.w3.org/2000/svg">
<g clip-path="url(#clip0_103_12812)">
<path fill-rule="evenodd" clip-rule="evenodd" d="M36.2054 315.1C37.4233 315.1 38.4107 316.084 38.4107 317.299C38.4107 318.515 37.4233 319.5 36.2054 319.5C34.9874 319.5 34 318.515 34 317.299C34 316.084 34.9874 315.1 36.2054 315.1ZM52.378 315.1C53.596 315.1 54.5833 316.084 54.5833 317.299C54.5833 318.515 53.596 319.5 52.378 319.5C51.16 319.5 50.1726 318.515 50.1726 317.299C50.1726 316.084 51.16 315.1 52.378 315.1ZM68.5506 315.1C69.7686 315.1 70.756 316.084 70.756 317.299C70.756 318.515 69.7686 319.5 68.5506 319.5C67.3326 319.5 66.3452 318.515 66.3452 317.299C66.3452 316.084 67.3326 315.1 68.5506 315.1ZM84.7232 315.1C85.9412 315.1 86.9286 316.084 86.9286 317.299C86.9286 318.515 85.9412 319.5 84.7232 319.5C83.5052 319.5 82.5179 318.515 82.5179 317.299C82.5179 316.084 83.5052 315.1 84.7232 315.1ZM100.896 315.1C102.114 315.1 103.101 316.084 103.101 317.299C103.101 318.515 102.114 319.5 100.896 319.5C99.6778 319.5 98.6905 318.515 98.6905 317.299C98.6905 316.084 99.6778 315.1 100.896 315.1ZM117.068 315.1C118.286 315.1 119.274 316.084 119.274 317.299C119.274 318.515 118.286 319.5 117.068 319.5C115.85 319.5 114.863 318.515 114.863 317.299C114.863 316.084 115.85 315.1 117.068 315.1ZM133.241 315.1C134.459 315.1 135.446 316.084 135.446 317.299C135.446 318.515 134.459 319.5 133.241 319.5C132.023 319.5 131.036 318.515 131.036 317.299C131.036 316.084 132.023 315.1 133.241 315.1ZM149.414 315.1C150.632 315.1 151.619 316.084 151.619 317.299C151.619 318.515 150.632 319.5 149.414 319.5C148.196 319.5 147.208 318.515 147.208 317.299C147.208 316.084 148.196 315.1 149.414 315.1ZM165.586 315.1C166.804 315.1 167.792 316.084 167.792 317.299C167.792 318.515 166.804 319.5 165.586 319.5C164.368 319.5 163.381 318.515 163.381 317.299C163.381 316.084 164.368 315.1 165.586 315.1ZM181.759 315.007C182.977 315.007 183.964 315.992 183.964 317.207C183.964 318.422 182.977 319.407 181.759 319.407C180.541 319.407 179.554 318.422 179.554 317.207C179.554 315.992 180.541 315.007 181.759 315.007ZM197.932 315.007C199.15 315.007 200.137 315.992 200.137 317.207C200.137 318.422 199.15 319.407 197.932 319.407C196.714 319.407 195.726 318.422 195.726 317.207C195.726 315.992 196.714 315.007 197.932 315.007ZM214.104 315.007C215.322 315.007 216.31 315.992 216.31 317.207C216.31 318.422 215.322 319.407 214.104 319.407C212.886 319.407 211.899 318.422 211.899 317.207C211.899 315.992 212.886 315.007 214.104 315.007ZM230.277 315.007C231.495 315.007 232.482 315.992 232.482 317.207C232.482 318.422 231.495 319.407 230.277 319.407C229.059 319.407 228.071 318.422 228.071 317.207C228.071 315.992 229.059 315.007 230.277 315.007ZM246.449 315.007C247.667 315.007 248.655 315.992 248.655 317.207C248.655 318.422 247.667 319.407 246.449 319.407C245.231 319.407 244.244 318.422 244.244 317.207C244.244 315.992 245.231 315.007 246.449 315.007ZM262.622 315.007C263.84 315.007 264.827 315.992 264.827 317.207C264.827 318.422 263.84 319.407 262.622 319.407C261.404 319.407 260.417 318.422 260.417 317.207C260.417 315.992 261.404 315.007 262.622 315.007ZM278.795 315.007C280.013 315.007 281 315.992 281 317.207C281 318.422 280.013 319.407 278.795 319.407C277.577 319.407 276.589 318.422 276.589 317.207C276.589 315.992 277.577 315.007 278.795 315.007ZM165.586 298.966C166.804 298.966 167.792 299.951 167.792 301.166C167.792 302.381 166.804 303.366 165.586 303.366C164.368 303.366 163.381 302.381 163.381 301.166C163.381 299.951 164.368 298.966 165.586 298.966ZM181.759 298.874C182.977 298.874 183.964 299.859 183.964 301.074C183.964 302.289 182.977 303.274 181.759 303.274C180.541 303.274 179.554 302.289 179.554 301.074C179.554 299.859 180.541 298.874 181.759 298.874ZM197.932 298.874C199.15 298.874 200.137 299.859 200.137 301.074C200.137 302.289 199.15 303.274 197.932 303.274C196.714 303.274 195.726 302.289 195.726 301.074C195.726 299.859 196.714 298.874 197.932 298.874ZM214.104 298.874C215.322 298.874 216.31 299.859 216.31 301.074C216.31 302.289 215.322 303.274 214.104 303.274C212.886 303.274 211.899 302.289 211.899 301.074C211.899 299.859 212.886 298.874 214.104 298.874ZM36.2054 298.966C37.4233 298.966 38.4107 299.951 38.4107 301.166C38.4107 302.381 37.4233 303.366 36.2054 303.366C34.9874 303.366 34 302.381 34 301.166C34 299.951 34.9874 298.966 36.2054 298.966ZM68.5506 298.966C69.7686 298.966 70.756 299.951 70.756 301.166C70.756 302.381 69.7686 303.366 68.5506 303.366C67.3326 303.366 66.3452 302.381 66.3452 301.166C66.3452 299.951 67.3326 298.966 68.5506 298.966ZM100.896 298.966C102.114 298.966 103.101 299.951 103.101 301.166C103.101 302.381 102.114 303.366 100.896 303.366C99.6778 303.366 98.6905 302.381 98.6905 301.166C98.6905 299.951 99.6778 298.966 100.896 298.966ZM133.241 298.966C134.459 298.966 135.446 299.951 135.446 301.166C135.446 302.381 134.459 303.366 133.241 303.366C132.023 303.366 131.036 302.381 131.036 301.166C131.036 299.951 132.023 298.966 133.241 298.966ZM149.414 298.966C150.632 298.966 151.619 299.951 151.619 301.166C151.619 302.381 150.632 303.366 149.414 303.366C148.196 303.366 147.208 302.381 147.208 301.166C147.208 299.951 148.196 298.966 149.414 298.966ZM246.449 298.874C247.667 298.874 248.655 299.859 248.655 301.074C248.655 302.289 247.667 303.274 246.449 303.274C245.231 303.274 244.244 302.289 244.244 301.074C244.244 299.859 245.231 298.874 246.449 298.874ZM52.378 298.966C53.596 298.966 54.5833 299.951 54.5833 301.166C54.5833 302.381 53.596 303.366 52.378 303.366C51.16 303.366 50.1726 302.381 50.1726 301.166C50.1726 299.951 51.16 298.966 52.378 298.966ZM262.622 298.874C263.84 298.874 264.827 299.859 264.827 301.074C264.827 302.289 263.84 303.274 262.622 303.274C261.404 303.274 260.417 302.289 260.417 301.074C260.417 299.859 261.404 298.874 262.622 298.874ZM84.7232 298.966C85.9412 298.966 86.9286 299.951 86.9286 301.166C86.9286 302.381 85.9412 303.366 84.7232 303.366C83.5052 303.366 82.5179 302.381 82.5179 301.166C82.5179 299.951 83.5052 298.966 84.7232 298.966ZM278.795 298.874C280.013 298.874 281 299.859 281 301.074C281 302.289 280.013 303.274 278.795 303.274C277.577 303.274 276.589 302.289 276.589 301.074C276.589 299.859 277.577 298.874 278.795 298.874ZM117.068 298.966C118.286 298.966 119.274 299.951 119.274 301.166C119.274 302.381 118.286 303.366 117.068 303.366C115.85 303.366 114.863 302.381 114.863 301.166C114.863 299.951 115.85 298.966 117.068 298.966ZM230.277 298.874C231.495 298.874 232.482 299.859 232.482 301.074C232.482 302.289 231.495 303.274 230.277 303.274C229.059 303.274 228.071 302.289 228.071 301.074C228.071 299.859 229.059 298.874 230.277 298.874ZM68.5506 282.833C69.7686 282.833 70.756 283.818 70.756 285.033C70.756 286.248 69.7686 287.233 68.5506 287.233C67.3326 287.233 66.3452 286.248 66.3452 285.033C66.3452 283.818 67.3326 282.833 68.5506 282.833ZM100.896 282.833C102.114 282.833 103.101 283.818 103.101 285.033C103.101 286.248 102.114 287.233 100.896 287.233C99.6778 287.233 98.6905 286.248 98.6905 285.033C98.6905 283.818 99.6778 282.833 100.896 282.833ZM117.068 282.833C118.286 282.833 119.274 283.818 119.274 285.033C119.274 286.248 118.286 287.233 117.068 287.233C115.85 287.233 114.863 286.248 114.863 285.033C114.863 283.818 115.85 282.833 117.068 282.833ZM133.241 282.833C134.459 282.833 135.446 283.818 135.446 285.033C135.446 286.248 134.459 287.233 133.241 287.233C132.023 287.233 131.036 286.248 131.036 285.033C131.036 283.818 132.023 282.833 133.241 282.833ZM149.414 282.833C150.632 282.833 151.619 283.818 151.619 285.033C151.619 286.248 150.632 287.233 149.414 287.233C148.196 287.233 147.208 286.248 147.208 285.033C147.208 283.818 148.196 282.833 149.414 282.833ZM36.2054 282.833C37.4233 282.833 38.4107 283.818 38.4107 285.033C38.4107 286.248 37.4233 287.233 36.2054 287.233C34.9874 287.233 34 286.248 34 285.033C34 283.818 34.9874 282.833 36.2054 282.833ZM52.378 282.833C53.596 282.833 54.5833 283.818 54.5833 285.033C54.5833 286.248 53.596 287.233 52.378 287.233C51.16 287.233 50.1726 286.248 50.1726 285.033C50.1726 283.818 51.16 282.833 52.378 282.833ZM84.7232 282.833C85.9412 282.833 86.9286 283.818 86.9286 285.033C86.9286 286.248 85.9412 287.233 84.7232 287.233C83.5052 287.233 82.5179 286.248 82.5179 285.033C82.5179 283.818 83.5052 282.833 84.7232 282.833ZM165.586 282.833C166.804 282.833 167.792 283.818 167.792 285.033C167.792 286.248 166.804 287.233 165.586 287.233C164.368 287.233 163.381 286.248 163.381 285.033C163.381 283.818 164.368 282.833 165.586 282.833ZM181.759 282.741C182.977 282.741 183.964 283.726 183.964 284.941C183.964 286.156 182.977 287.141 181.759 287.141C180.541 287.141 179.554 286.156 179.554 284.941C179.554 283.726 180.541 282.741 181.759 282.741ZM197.932 282.741C199.15 282.741 200.137 283.726 200.137 284.941C200.137 286.156 199.15 287.141 197.932 287.141C196.714 287.141 195.726 286.156 195.726 284.941C195.726 283.726 196.714 282.741 197.932 282.741ZM214.104 282.741C215.322 282.741 216.31 283.726 216.31 284.941C216.31 286.156 215.322 287.141 214.104 287.141C212.886 287.141 211.899 286.156 211.899 284.941C211.899 283.726 212.886 282.741 214.104 282.741ZM230.277 282.741C231.495 282.741 232.482 283.726 232.482 284.941C232.482 286.156 231.495 287.141 230.277 287.141C229.059 287.141 228.071 286.156 228.071 284.941C228.071 283.726 229.059 282.741 230.277 282.741ZM246.449 282.741C247.667 282.741 248.655 283.726 248.655 284.941C248.655 286.156 247.667 287.141 246.449 287.141C245.231 287.141 244.244 286.156 244.244 284.941C244.244 283.726 245.231 282.741 246.449 282.741ZM262.622 282.741C263.84 282.741 264.827 283.726 264.827 284.941C264.827 286.156 263.84 287.141 262.622 287.141C261.404 287.141 260.417 286.156 260.417 284.941C260.417 283.726 261.404 282.741 262.622 282.741ZM278.795 282.741C280.013 282.741 281 283.726 281 284.941C281 286.156 280.013 287.141 278.795 287.141C277.577 287.141 276.589 286.156 276.589 284.941C276.589 283.726 277.577 282.741 278.795 282.741ZM36.2054 266.7C37.4233 266.7 38.4107 267.684 38.4107 268.9C38.4107 270.115 37.4233 271.1 36.2054 271.1C34.9874 271.1 34 270.115 34 268.9C34 267.684 34.9874 266.7 36.2054 266.7ZM52.378 266.7C53.596 266.7 54.5833 267.684 54.5833 268.9C54.5833 270.115 53.596 271.1 52.378 271.1C51.16 271.1 50.1726 270.115 50.1726 268.9C50.1726 267.684 51.16 266.7 52.378 266.7ZM68.5506 266.7C69.7686 266.7 70.756 267.684 70.756 268.9C70.756 270.115 69.7686 271.1 68.5506 271.1C67.3326 271.1 66.3452 270.115 66.3452 268.9C66.3452 267.684 67.3326 266.7 68.5506 266.7ZM84.7232 266.7C85.9412 266.7 86.9286 267.684 86.9286 268.9C86.9286 270.115 85.9412 271.1 84.7232 271.1C83.5052 271.1 82.5179 270.115 82.5179 268.9C82.5179 267.684 83.5052 266.7 84.7232 266.7ZM100.896 266.7C102.114 266.7 103.101 267.684 103.101 268.9C103.101 270.115 102.114 271.1 100.896 271.1C99.6778 271.1 98.6905 270.115 98.6905 268.9C98.6905 267.684 99.6778 266.7 100.896 266.7ZM117.068 266.7C118.286 266.7 119.274 267.684 119.274 268.9C119.274 270.115 118.286 271.1 117.068 271.1C115.85 271.1 114.863 270.115 114.863 268.9C114.863 267.684 115.85 266.7 117.068 266.7ZM133.241 266.7C134.459 266.7 135.446 267.684 135.446 268.9C135.446 270.115 134.459 271.1 133.241 271.1C132.023 271.1 131.036 270.115 131.036 268.9C131.036 267.684 132.023 266.7 133.241 266.7ZM149.414 266.7C150.632 266.7 151.619 267.684 151.619 268.9C151.619 270.115 150.632 271.1 149.414 271.1C148.196 271.1 147.208 270.115 147.208 268.9C147.208 267.684 148.196 266.7 149.414 266.7ZM165.586 266.7C166.804 266.7 167.792 267.684 167.792 268.9C167.792 270.115 166.804 271.1 165.586 271.1C164.368 271.1 163.381 270.115 163.381 268.9C163.381 267.684 164.368 266.7 165.586 266.7ZM181.759 266.607C182.977 266.607 183.964 267.592 183.964 268.807C183.964 270.022 182.977 271.007 181.759 271.007C180.541 271.007 179.554 270.022 179.554 268.807C179.554 267.592 180.541 266.607 181.759 266.607ZM197.932 266.607C199.15 266.607 200.137 267.592 200.137 268.807C200.137 270.022 199.15 271.007 197.932 271.007C196.714 271.007 195.726 270.022 195.726 268.807C195.726 267.592 196.714 266.607 197.932 266.607ZM214.104 266.607C215.322 266.607 216.31 267.592 216.31 268.807C216.31 270.022 215.322 271.007 214.104 271.007C212.886 271.007 211.899 270.022 211.899 268.807C211.899 267.592 212.886 266.607 214.104 266.607ZM230.277 266.607C231.495 266.607 232.482 267.592 232.482 268.807C232.482 270.022 231.495 271.007 230.277 271.007C229.059 271.007 228.071 270.022 228.071 268.807C228.071 267.592 229.059 266.607 230.277 266.607ZM246.449 266.607C247.667 266.607 248.655 267.592 248.655 268.807C248.655 270.022 247.667 271.007 246.449 271.007C245.231 271.007 244.244 270.022 244.244 268.807C244.244 267.592 245.231 266.607 246.449 266.607ZM262.622 266.607C263.84 266.607 264.827 267.592 264.827 268.807C264.827 270.022 263.84 271.007 262.622 271.007C261.404 271.007 260.417 270.022 260.417 268.807C260.417 267.592 261.404 266.607 262.622 266.607ZM278.795 266.607C280.013 266.607 281 267.592 281 268.807C281 270.022 280.013 271.007 278.795 271.007C277.577 271.007 276.589 270.022 276.589 268.807C276.589 267.592 277.577 266.607 278.795 266.607ZM36.2054 250.566C37.4233 250.566 38.4107 251.551 38.4107 252.766C38.4107 253.981 37.4233 254.966 36.2054 254.966C34.9874 254.966 34 253.981 34 252.766C34 251.551 34.9874 250.566 36.2054 250.566ZM52.378 250.566C53.596 250.566 54.5833 251.551 54.5833 252.766C54.5833 253.981 53.596 254.966 52.378 254.966C51.16 254.966 50.1726 253.981 50.1726 252.766C50.1726 251.551 51.16 250.566 52.378 250.566ZM68.5506 250.566C69.7686 250.566 70.756 251.551 70.756 252.766C70.756 253.981 69.7686 254.966 68.5506 254.966C67.3326 254.966 66.3452 253.981 66.3452 252.766C66.3452 251.551 67.3326 250.566 68.5506 250.566ZM84.7232 250.566C85.9412 250.566 86.9286 251.551 86.9286 252.766C86.9286 253.981 85.9412 254.966 84.7232 254.966C83.5052 254.966 82.5179 253.981 82.5179 252.766C82.5179 251.551 83.5052 250.566 84.7232 250.566ZM100.896 250.566C102.114 250.566 103.101 251.551 103.101 252.766C103.101 253.981 102.114 254.966 100.896 254.966C99.6778 254.966 98.6905 253.981 98.6905 252.766C98.6905 251.551 99.6778 250.566 100.896 250.566ZM117.068 250.566C118.286 250.566 119.274 251.551 119.274 252.766C119.274 253.981 118.286 254.966 117.068 254.966C115.85 254.966 114.863 253.981 114.863 252.766C114.863 251.551 115.85 250.566 117.068 250.566ZM133.241 250.566C134.459 250.566 135.446 251.551 135.446 252.766C135.446 253.981 134.459 254.966 133.241 254.966C132.023 254.966 131.036 253.981 131.036 252.766C131.036 251.551 132.023 250.566 133.241 250.566ZM149.414 250.566C150.632 250.566 151.619 251.551 151.619 252.766C151.619 253.981 150.632 254.966 149.414 254.966C148.196 254.966 147.208 253.981 147.208 252.766C147.208 251.551 148.196 250.566 149.414 250.566ZM165.586 250.566C166.804 250.566 167.792 251.551 167.792 252.766C167.792 253.981 166.804 254.966 165.586 254.966C164.368 254.966 163.381 253.981 163.381 252.766C163.381 251.551 164.368 250.566 165.586 250.566ZM78.8423 2.69951C78.8423 3.91454 77.8549 4.89951 76.6369 4.89951C75.4189 4.89951 74.4315 3.91454 74.4315 2.69951C74.4315 1.48449 75.4189 0.499512 76.6369 0.499512C77.8549 0.499512 78.8423 1.48449 78.8423 2.69951ZM78.8423 18.8328C78.8423 20.0479 77.8549 21.0328 76.6369 21.0328C75.4189 21.0328 74.4315 20.0479 74.4315 18.8328C74.4315 17.6178 75.4189 16.6328 76.6369 16.6328C77.8549 16.6328 78.8423 17.6178 78.8423 18.8328ZM78.8423 34.9662C78.8423 36.1812 77.8549 37.1662 76.6369 37.1662C75.4189 37.1662 74.4315 36.1812 74.4315 34.9662C74.4315 33.7512 75.4189 32.7662 76.6369 32.7662C77.8549 32.7662 78.8423 33.7512 78.8423 34.9662ZM78.8423 51.0995C78.8423 52.3145 77.8549 53.2995 76.6369 53.2995C75.4189 53.2995 74.4315 52.3145 74.4315 51.0995C74.4315 49.8845 75.4189 48.8995 76.6369 48.8995C77.8549 48.8995 78.8423 49.8845 78.8423 51.0995ZM78.8423 67.2328C78.8423 68.4479 77.8549 69.4328 76.6369 69.4328C75.4189 69.4328 74.4315 68.4479 74.4315 67.2328C74.4315 66.0178 75.4189 65.0328 76.6369 65.0328C77.8549 65.0328 78.8423 66.0178 78.8423 67.2328ZM78.8423 83.3662C78.8423 84.5812 77.8549 85.5662 76.6369 85.5662C75.4189 85.5662 74.4315 84.5812 74.4315 83.3662C74.4315 82.1512 75.4189 81.1662 76.6369 81.1662C77.8549 81.1662 78.8423 82.1512 78.8423 83.3662ZM78.8423 99.4995C78.8423 100.715 77.8549 101.7 76.6369 101.7C75.4189 101.7 74.4315 100.715 74.4315 99.4995C74.4315 98.2845 75.4189 97.2995 76.6369 97.2995C77.8549 97.2995 78.8423 98.2845 78.8423 99.4995ZM78.8423 115.633C78.8423 116.848 77.8549 117.833 76.6369 117.833C75.4189 117.833 74.4315 116.848 74.4315 115.633C74.4315 114.418 75.4189 113.433 76.6369 113.433C77.8549 113.433 78.8423 114.418 78.8423 115.633ZM78.8423 131.766C78.8423 132.981 77.8549 133.966 76.6369 133.966C75.4189 133.966 74.4315 132.981 74.4315 131.766C74.4315 130.551 75.4189 129.566 76.6369 129.566C77.8549 129.566 78.8423 130.551 78.8423 131.766ZM78.8423 147.9C78.8423 149.115 77.8549 150.1 76.6369 150.1C75.4189 150.1 74.4315 149.115 74.4315 147.9C74.4315 146.684 75.4189 145.7 76.6369 145.7C77.8549 145.7 78.8423 146.684 78.8423 147.9ZM78.8423 164.033C78.8423 165.248 77.8549 166.233 76.6369 166.233C75.4189 166.233 74.4315 165.248 74.4315 164.033C74.4315 162.818 75.4189 161.833 76.6369 161.833C77.8549 161.833 78.8423 162.818 78.8423 164.033ZM78.8423 180.166C78.8423 181.381 77.8549 182.366 76.6369 182.366C75.4189 182.366 74.4315 181.381 74.4315 180.166C74.4315 178.951 75.4189 177.966 76.6369 177.966C77.8549 177.966 78.8423 178.951 78.8423 180.166ZM78.8423 196.3C78.8423 197.515 77.8549 198.5 76.6369 198.5C75.4189 198.5 74.4315 197.515 74.4315 196.3C74.4315 195.084 75.4189 194.1 76.6369 194.1C77.8549 194.1 78.8423 195.084 78.8423 196.3ZM78.8423 212.433C78.8423 213.648 77.8549 214.633 76.6369 214.633C75.4189 214.633 74.4315 213.648 74.4315 212.433C74.4315 211.218 75.4189 210.233 76.6369 210.233C77.8549 210.233 78.8423 211.218 78.8423 212.433ZM95.0149 99.4995C95.0149 100.715 94.0275 101.7 92.8095 101.7C91.5915 101.7 90.6042 100.715 90.6042 99.4995C90.6042 98.2845 91.5915 97.2995 92.8095 97.2995C94.0275 97.2995 95.0149 98.2845 95.0149 99.4995ZM95.0149 115.633C95.0149 116.848 94.0275 117.833 92.8095 117.833C91.5915 117.833 90.6042 116.848 90.6042 115.633C90.6042 114.418 91.5915 113.433 92.8095 113.433C94.0275 113.433 95.0149 114.418 95.0149 115.633ZM95.0149 131.766C95.0149 132.981 94.0275 133.966 92.8095 133.966C91.5915 133.966 90.6042 132.981 90.6042 131.766C90.6042 130.551 91.5915 129.566 92.8095 129.566C94.0275 129.566 95.0149 130.551 95.0149 131.766ZM95.0149 147.9C95.0149 149.115 94.0275 150.1 92.8095 150.1C91.5915 150.1 90.6042 149.115 90.6042 147.9C90.6042 146.684 91.5915 145.7 92.8095 145.7C94.0275 145.7 95.0149 146.684 95.0149 147.9ZM95.0149 2.69951C95.0149 3.91454 94.0275 4.89951 92.8095 4.89951C91.5915 4.89951 90.6042 3.91454 90.6042 2.69951C90.6042 1.48449 91.5915 0.499512 92.8095 0.499512C94.0275 0.499512 95.0149 1.48449 95.0149 2.69951ZM95.0149 34.9662C95.0149 36.1812 94.0275 37.1662 92.8095 37.1662C91.5915 37.1662 90.6042 36.1812 90.6042 34.9662C90.6042 33.7512 91.5915 32.7662 92.8095 32.7662C94.0275 32.7662 95.0149 33.7512 95.0149 34.9662ZM95.0149 67.2328C95.0149 68.4479 94.0275 69.4328 92.8095 69.4328C91.5915 69.4328 90.6042 68.4479 90.6042 67.2328C90.6042 66.0178 91.5915 65.0328 92.8095 65.0328C94.0275 65.0328 95.0149 66.0178 95.0149 67.2328ZM95.0149 83.3662C95.0149 84.5812 94.0275 85.5662 92.8095 85.5662C91.5915 85.5662 90.6042 84.5812 90.6042 83.3662C90.6042 82.1512 91.5915 81.1662 92.8095 81.1662C94.0275 81.1662 95.0149 82.1512 95.0149 83.3662ZM95.0149 180.166C95.0149 181.381 94.0275 182.366 92.8095 182.366C91.5915 182.366 90.6042 181.381 90.6042 180.166C90.6042 178.951 91.5915 177.966 92.8095 177.966C94.0275 177.966 95.0149 178.951 95.0149 180.166ZM95.0149 196.3C95.0149 197.515 94.0275 198.5 92.8095 198.5C91.5915 198.5 90.6042 197.515 90.6042 196.3C90.6042 195.084 91.5915 194.1 92.8095 194.1C94.0275 194.1 95.0149 195.084 95.0149 196.3ZM95.0149 18.8328C95.0149 20.0479 94.0275 21.0328 92.8095 21.0328C91.5915 21.0328 90.6042 20.0479 90.6042 18.8328C90.6042 17.6178 91.5915 16.6328 92.8095 16.6328C94.0275 16.6328 95.0149 17.6178 95.0149 18.8328ZM95.0149 212.433C95.0149 213.648 94.0275 214.633 92.8095 214.633C91.5915 214.633 90.6042 213.648 90.6042 212.433C90.6042 211.218 91.5915 210.233 92.8095 210.233C94.0275 210.233 95.0149 211.218 95.0149 212.433ZM95.0149 51.0995C95.0149 52.3145 94.0275 53.2995 92.8095 53.2995C91.5915 53.2995 90.6042 52.3145 90.6042 51.0995C90.6042 49.8845 91.5915 48.8995 92.8095 48.8995C94.0275 48.8995 95.0149 49.8845 95.0149 51.0995ZM95.0149 164.033C95.0149 165.248 94.0275 166.233 92.8095 166.233C91.5915 166.233 90.6042 165.248 90.6042 164.033C90.6042 162.818 91.5915 161.833 92.8095 161.833C94.0275 161.833 95.0149 162.818 95.0149 164.033ZM111.188 2.69951C111.188 3.91454 110.2 4.89951 108.982 4.89951C107.764 4.89951 106.777 3.91454 106.777 2.69951C106.777 1.48449 107.764 0.499512 108.982 0.499512C110.2 0.499512 111.188 1.48449 111.188 2.69951ZM111.188 34.9662C111.188 36.1812 110.2 37.1662 108.982 37.1662C107.764 37.1662 106.777 36.1812 106.777 34.9662C106.777 33.7512 107.764 32.7662 108.982 32.7662C110.2 32.7662 111.188 33.7512 111.188 34.9662ZM111.188 51.0995C111.188 52.3145 110.2 53.2995 108.982 53.2995C107.764 53.2995 106.777 52.3145 106.777 51.0995C106.777 49.8845 107.764 48.8995 108.982 48.8995C110.2 48.8995 111.188 49.8845 111.188 51.0995ZM111.188 67.2328C111.188 68.4479 110.2 69.4328 108.982 69.4328C107.764 69.4328 106.777 68.4479 106.777 67.2328C106.777 66.0178 107.764 65.0328 108.982 65.0328C110.2 65.0328 111.188 66.0178 111.188 67.2328ZM111.188 83.3662C111.188 84.5812 110.2 85.5662 108.982 85.5662C107.764 85.5662 106.777 84.5812 106.777 83.3662C106.777 82.1512 107.764 81.1662 108.982 81.1662C110.2 81.1662 111.188 82.1512 111.188 83.3662ZM111.188 18.8328C111.188 20.0479 110.2 21.0328 108.982 21.0328C107.764 21.0328 106.777 20.0479 106.777 18.8328C106.777 17.6178 107.764 16.6328 108.982 16.6328C110.2 16.6328 111.188 17.6178 111.188 18.8328ZM111.188 99.4995C111.188 100.715 110.2 101.7 108.982 101.7C107.764 101.7 106.777 100.715 106.777 99.4995C106.777 98.2845 107.764 97.2995 108.982 97.2995C110.2 97.2995 111.188 98.2845 111.188 99.4995ZM111.188 115.633C111.188 116.848 110.2 117.833 108.982 117.833C107.764 117.833 106.777 116.848 106.777 115.633C106.777 114.418 107.764 113.433 108.982 113.433C110.2 113.433 111.188 114.418 111.188 115.633ZM111.188 131.766C111.188 132.981 110.2 133.966 108.982 133.966C107.764 133.966 106.777 132.981 106.777 131.766C106.777 130.551 107.764 129.566 108.982 129.566C110.2 129.566 111.188 130.551 111.188 131.766ZM111.188 147.9C111.188 149.115 110.2 150.1 108.982 150.1C107.764 150.1 106.777 149.115 106.777 147.9C106.777 146.684 107.764 145.7 108.982 145.7C110.2 145.7 111.188 146.684 111.188 147.9ZM111.188 164.033C111.188 165.248 110.2 166.233 108.982 166.233C107.764 166.233 106.777 165.248 106.777 164.033C106.777 162.818 107.764 161.833 108.982 161.833C110.2 161.833 111.188 162.818 111.188 164.033ZM111.188 180.166C111.188 181.381 110.2 182.366 108.982 182.366C107.764 182.366 106.777 181.381 106.777 180.166C106.777 178.951 107.764 177.966 108.982 177.966C110.2 177.966 111.188 178.951 111.188 180.166ZM111.188 196.3C111.188 197.515 110.2 198.5 108.982 198.5C107.764 198.5 106.777 197.515 106.777 196.3C106.777 195.084 107.764 194.1 108.982 194.1C110.2 194.1 111.188 195.084 111.188 196.3ZM111.188 212.433C111.188 213.648 110.2 214.633 108.982 214.633C107.764 214.633 106.777 213.648 106.777 212.433C106.777 211.218 107.764 210.233 108.982 210.233C110.2 210.233 111.188 211.218 111.188 212.433ZM127.36 2.69951C127.36 3.91454 126.373 4.89951 125.155 4.89951C123.937 4.89951 122.949 3.91454 122.949 2.69951C122.949 1.48449 123.937 0.499512 125.155 0.499512C126.373 0.499512 127.36 1.48449 127.36 2.69951ZM127.36 18.8328C127.36 20.0479 126.373 21.0328 125.155 21.0328C123.937 21.0328 122.949 20.0479 122.949 18.8328C122.949 17.6178 123.937 16.6328 125.155 16.6328C126.373 16.6328 127.36 17.6178 127.36 18.8328ZM127.36 34.9662C127.36 36.1812 126.373 37.1662 125.155 37.1662C123.937 37.1662 122.949 36.1812 122.949 34.9662C122.949 33.7512 123.937 32.7662 125.155 32.7662C126.373 32.7662 127.36 33.7512 127.36 34.9662ZM127.36 51.0995C127.36 52.3145 126.373 53.2995 125.155 53.2995C123.937 53.2995 122.949 52.3145 122.949 51.0995C122.949 49.8845 123.937 48.8995 125.155 48.8995C126.373 48.8995 127.36 49.8845 127.36 51.0995ZM127.36 67.2328C127.36 68.4479 126.373 69.4328 125.155 69.4328C123.937 69.4328 122.949 68.4479 122.949 67.2328C122.949 66.0178 123.937 65.0328 125.155 65.0328C126.373 65.0328 127.36 66.0178 127.36 67.2328ZM127.36 83.3662C127.36 84.5812 126.373 85.5662 125.155 85.5662C123.937 85.5662 122.949 84.5812 122.949 83.3662C122.949 82.1512 123.937 81.1662 125.155 81.1662C126.373 81.1662 127.36 82.1512 127.36 83.3662ZM127.36 99.4995C127.36 100.715 126.373 101.7 125.155 101.7C123.937 101.7 122.949 100.715 122.949 99.4995C122.949 98.2845 123.937 97.2995 125.155 97.2995C126.373 97.2995 127.36 98.2845 127.36 99.4995ZM127.36 115.633C127.36 116.848 126.373 117.833 125.155 117.833C123.937 117.833 122.949 116.848 122.949 115.633C122.949 114.418 123.937 113.433 125.155 113.433C126.373 113.433 127.36 114.418 127.36 115.633ZM127.36 131.766C127.36 132.981 126.373 133.966 125.155 133.966C123.937 133.966 122.949 132.981 122.949 131.766C122.949 130.551 123.937 129.566 125.155 129.566C126.373 129.566 127.36 130.551 127.36 131.766ZM127.36 147.9C127.36 149.115 126.373 150.1 125.155 150.1C123.937 150.1 122.949 149.115 122.949 147.9C122.949 146.684 123.937 145.7 125.155 145.7C126.373 145.7 127.36 146.684 127.36 147.9ZM127.36 164.033C127.36 165.248 126.373 166.233 125.155 166.233C123.937 166.233 122.949 165.248 122.949 164.033C122.949 162.818 123.937 161.833 125.155 161.833C126.373 161.833 127.36 162.818 127.36 164.033ZM127.36 180.166C127.36 181.381 126.373 182.366 125.155 182.366C123.937 182.366 122.949 181.381 122.949 180.166C122.949 178.951 123.937 177.966 125.155 177.966C126.373 177.966 127.36 178.951 127.36 180.166ZM127.36 196.3C127.36 197.515 126.373 198.5 125.155 198.5C123.937 198.5 122.949 197.515 122.949 196.3C122.949 195.084 123.937 194.1 125.155 194.1C126.373 194.1 127.36 195.084 127.36 196.3ZM127.36 212.433C127.36 213.648 126.373 214.633 125.155 214.633C123.937 214.633 122.949 213.648 122.949 212.433C122.949 211.218 123.937 210.233 125.155 210.233C126.373 210.233 127.36 211.218 127.36 212.433ZM143.533 2.69951C143.533 3.91454 142.545 4.89951 141.327 4.89951C140.109 4.89951 139.122 3.91454 139.122 2.69951C139.122 1.48449 140.109 0.499512 141.327 0.499512C142.545 0.499512 143.533 1.48449 143.533 2.69951ZM143.533 18.8328C143.533 20.0479 142.545 21.0328 141.327 21.0328C140.109 21.0328 139.122 20.0479 139.122 18.8328C139.122 17.6178 140.109 16.6328 141.327 16.6328C142.545 16.6328 143.533 17.6178 143.533 18.8328ZM143.533 34.9662C143.533 36.1812 142.545 37.1662 141.327 37.1662C140.109 37.1662 139.122 36.1812 139.122 34.9662C139.122 33.7512 140.109 32.7662 141.327 32.7662C142.545 32.7662 143.533 33.7512 143.533 34.9662ZM143.533 51.0995C143.533 52.3145 142.545 53.2995 141.327 53.2995C140.109 53.2995 139.122 52.3145 139.122 51.0995C139.122 49.8845 140.109 48.8995 141.327 48.8995C142.545 48.8995 143.533 49.8845 143.533 51.0995ZM143.533 67.2328C143.533 68.4479 142.545 69.4328 141.327 69.4328C140.109 69.4328 139.122 68.4479 139.122 67.2328C139.122 66.0178 140.109 65.0328 141.327 65.0328C142.545 65.0328 143.533 66.0178 143.533 67.2328ZM143.533 83.3662C143.533 84.5812 142.545 85.5662 141.327 85.5662C140.109 85.5662 139.122 84.5812 139.122 83.3662C139.122 82.1512 140.109 81.1662 141.327 81.1662C142.545 81.1662 143.533 82.1512 143.533 83.3662ZM143.533 99.4995C143.533 100.715 142.545 101.7 141.327 101.7C140.109 101.7 139.122 100.715 139.122 99.4995C139.122 98.2845 140.109 97.2995 141.327 97.2995C142.545 97.2995 143.533 98.2845 143.533 99.4995ZM143.533 115.633C143.533 116.848 142.545 117.833 141.327 117.833C140.109 117.833 139.122 116.848 139.122 115.633C139.122 114.418 140.109 113.433 141.327 113.433C142.545 113.433 143.533 114.418 143.533 115.633ZM143.533 131.766C143.533 132.981 142.545 133.966 141.327 133.966C140.109 133.966 139.122 132.981 139.122 131.766C139.122 130.551 140.109 129.566 141.327 129.566C142.545 129.566 143.533 130.551 143.533 131.766ZM143.533 147.9C143.533 149.115 142.545 150.1 141.327 150.1C140.109 150.1 139.122 149.115 139.122 147.9C139.122 146.684 140.109 145.7 141.327 145.7C142.545 145.7 143.533 146.684 143.533 147.9ZM143.533 164.033C143.533 165.248 142.545 166.233 141.327 166.233C140.109 166.233 139.122 165.248 139.122 164.033C139.122 162.818 140.109 161.833 141.327 161.833C142.545 161.833 143.533 162.818 143.533 164.033ZM143.533 180.166C143.533 181.381 142.545 182.366 141.327 182.366C140.109 182.366 139.122 181.381 139.122 180.166C139.122 178.951 140.109 177.966 141.327 177.966C142.545 177.966 143.533 178.951 143.533 180.166ZM143.533 196.3C143.533 197.515 142.545 198.5 141.327 198.5C140.109 198.5 139.122 197.515 139.122 196.3C139.122 195.084 140.109 194.1 141.327 194.1C142.545 194.1 143.533 195.084 143.533 196.3ZM143.533 212.433C143.533 213.648 142.545 214.633 141.327 214.633C140.109 214.633 139.122 213.648 139.122 212.433C139.122 211.218 140.109 210.233 141.327 210.233C142.545 210.233 143.533 211.218 143.533 212.433ZM159.705 2.69951C159.705 3.91454 158.718 4.89951 157.5 4.89951C156.282 4.89951 155.295 3.91454 155.295 2.69951C155.295 1.48449 156.282 0.499512 157.5 0.499512C158.718 0.499512 159.705 1.48449 159.705 2.69951ZM159.705 18.8328C159.705 20.0479 158.718 21.0328 157.5 21.0328C156.282 21.0328 155.295 20.0479 155.295 18.8328C155.295 17.6178 156.282 16.6328 157.5 16.6328C158.718 16.6328 159.705 17.6178 159.705 18.8328ZM159.705 34.9662C159.705 36.1812 158.718 37.1662 157.5 37.1662C156.282 37.1662 155.295 36.1812 155.295 34.9662C155.295 33.7512 156.282 32.7662 157.5 32.7662C158.718 32.7662 159.705 33.7512 159.705 34.9662ZM159.705 51.0995C159.705 52.3145 158.718 53.2995 157.5 53.2995C156.282 53.2995 155.295 52.3145 155.295 51.0995C155.295 49.8845 156.282 48.8995 157.5 48.8995C158.718 48.8995 159.705 49.8845 159.705 51.0995ZM159.705 67.2328C159.705 68.4479 158.718 69.4328 157.5 69.4328C156.282 69.4328 155.295 68.4479 155.295 67.2328C155.295 66.0178 156.282 65.0328 157.5 65.0328C158.718 65.0328 159.705 66.0178 159.705 67.2328ZM159.705 83.3662C159.705 84.5812 158.718 85.5662 157.5 85.5662C156.282 85.5662 155.295 84.5812 155.295 83.3662C155.295 82.1512 156.282 81.1662 157.5 81.1662C158.718 81.1662 159.705 82.1512 159.705 83.3662ZM159.705 99.4995C159.705 100.715 158.718 101.7 157.5 101.7C156.282 101.7 155.295 100.715 155.295 99.4995C155.295 98.2845 156.282 97.2995 157.5 97.2995C158.718 97.2995 159.705 98.2845 159.705 99.4995ZM159.705 115.633C159.705 116.848 158.718 117.833 157.5 117.833C156.282 117.833 155.295 116.848 155.295 115.633C155.295 114.418 156.282 113.433 157.5 113.433C158.718 113.433 159.705 114.418 159.705 115.633ZM159.705 131.766C159.705 132.981 158.718 133.966 157.5 133.966C156.282 133.966 155.295 132.981 155.295 131.766C155.295 130.551 156.282 129.566 157.5 129.566C158.718 129.566 159.705 130.551 159.705 131.766ZM159.705 147.9C159.705 149.115 158.718 150.1 157.5 150.1C156.282 150.1 155.295 149.115 155.295 147.9C155.295 146.684 156.282 145.7 157.5 145.7C158.718 145.7 159.705 146.684 159.705 147.9ZM159.705 164.033C159.705 165.248 158.718 166.233 157.5 166.233C156.282 166.233 155.295 165.248 155.295 164.033C155.295 162.818 156.282 161.833 157.5 161.833C158.718 161.833 159.705 162.818 159.705 164.033ZM159.705 180.166C159.705 181.381 158.718 182.366 157.5 182.366C156.282 182.366 155.295 181.381 155.295 180.166C155.295 178.951 156.282 177.966 157.5 177.966C158.718 177.966 159.705 178.951 159.705 180.166ZM159.705 196.3C159.705 197.515 158.718 198.5 157.5 198.5C156.282 198.5 155.295 197.515 155.295 196.3C155.295 195.084 156.282 194.1 157.5 194.1C158.718 194.1 159.705 195.084 159.705 196.3ZM159.705 212.433C159.705 213.648 158.718 214.633 157.5 214.633C156.282 214.633 155.295 213.648 155.295 212.433C155.295 211.218 156.282 210.233 157.5 210.233C158.718 210.233 159.705 211.218 159.705 212.433ZM175.878 2.69951C175.878 3.91454 174.891 4.89951 173.673 4.89951C172.455 4.89951 171.467 3.91454 171.467 2.69951C171.467 1.48449 172.455 0.499512 173.673 0.499512C174.891 0.499512 175.878 1.48449 175.878 2.69951ZM175.878 18.8328C175.878 20.0479 174.891 21.0328 173.673 21.0328C172.455 21.0328 171.467 20.0479 171.467 18.8328C171.467 17.6178 172.455 16.6328 173.673 16.6328C174.891 16.6328 175.878 17.6178 175.878 18.8328ZM175.878 34.9662C175.878 36.1812 174.891 37.1662 173.673 37.1662C172.455 37.1662 171.467 36.1812 171.467 34.9662C171.467 33.7512 172.455 32.7662 173.673 32.7662C174.891 32.7662 175.878 33.7512 175.878 34.9662ZM175.878 51.0995C175.878 52.3145 174.891 53.2995 173.673 53.2995C172.455 53.2995 171.467 52.3145 171.467 51.0995C171.467 49.8845 172.455 48.8995 173.673 48.8995C174.891 48.8995 175.878 49.8845 175.878 51.0995ZM175.878 67.2328C175.878 68.4479 174.891 69.4328 173.673 69.4328C172.455 69.4328 171.467 68.4479 171.467 67.2328C171.467 66.0178 172.455 65.0328 173.673 65.0328C174.891 65.0328 175.878 66.0178 175.878 67.2328ZM175.878 83.3662C175.878 84.5812 174.891 85.5662 173.673 85.5662C172.455 85.5662 171.467 84.5812 171.467 83.3662C171.467 82.1512 172.455 81.1662 173.673 81.1662C174.891 81.1662 175.878 82.1512 175.878 83.3662ZM175.878 99.4995C175.878 100.715 174.891 101.7 173.673 101.7C172.455 101.7 171.467 100.715 171.467 99.4995C171.467 98.2845 172.455 97.2995 173.673 97.2995C174.891 97.2995 175.878 98.2845 175.878 99.4995ZM175.878 115.633C175.878 116.848 174.891 117.833 173.673 117.833C172.455 117.833 171.467 116.848 171.467 115.633C171.467 114.418 172.455 113.433 173.673 113.433C174.891 113.433 175.878 114.418 175.878 115.633ZM175.878 131.766C175.878 132.981 174.891 133.966 173.673 133.966C172.455 133.966 171.467 132.981 171.467 131.766C171.467 130.551 172.455 129.566 173.673 129.566C174.891 129.566 175.878 130.551 175.878 131.766ZM175.878 147.9C175.878 149.115 174.891 150.1 173.673 150.1C172.455 150.1 171.467 149.115 171.467 147.9C171.467 146.684 172.455 145.7 173.673 145.7C174.891 145.7 175.878 146.684 175.878 147.9ZM175.878 164.033C175.878 165.248 174.891 166.233 173.673 166.233C172.455 166.233 171.467 165.248 171.467 164.033C171.467 162.818 172.455 161.833 173.673 161.833C174.891 161.833 175.878 162.818 175.878 164.033ZM175.878 180.166C175.878 181.381 174.891 182.366 173.673 182.366C172.455 182.366 171.467 181.381 171.467 180.166C171.467 178.951 172.455 177.966 173.673 177.966C174.891 177.966 175.878 178.951 175.878 180.166ZM175.878 196.3C175.878 197.515 174.891 198.5 173.673 198.5C172.455 198.5 171.467 197.515 171.467 196.3C171.467 195.084 172.455 194.1 173.673 194.1C174.891 194.1 175.878 195.084 175.878 196.3ZM175.878 212.433C175.878 213.648 174.891 214.633 173.673 214.633C172.455 214.633 171.467 213.648 171.467 212.433C171.467 211.218 172.455 210.233 173.673 210.233C174.891 210.233 175.878 211.218 175.878 212.433ZM192.051 2.69951C192.051 3.91454 191.063 4.89951 189.845 4.89951C188.627 4.89951 187.64 3.91454 187.64 2.69951C187.64 1.48449 188.627 0.499512 189.845 0.499512C191.063 0.499512 192.051 1.48449 192.051 2.69951ZM192.051 18.8328C192.051 20.0479 191.063 21.0328 189.845 21.0328C188.627 21.0328 187.64 20.0479 187.64 18.8328C187.64 17.6178 188.627 16.6328 189.845 16.6328C191.063 16.6328 192.051 17.6178 192.051 18.8328ZM192.051 34.9662C192.051 36.1812 191.063 37.1662 189.845 37.1662C188.627 37.1662 187.64 36.1812 187.64 34.9662C187.64 33.7512 188.627 32.7662 189.845 32.7662C191.063 32.7662 192.051 33.7512 192.051 34.9662ZM192.051 51.0995C192.051 52.3145 191.063 53.2995 189.845 53.2995C188.627 53.2995 187.64 52.3145 187.64 51.0995C187.64 49.8845 188.627 48.8995 189.845 48.8995C191.063 48.8995 192.051 49.8845 192.051 51.0995ZM192.051 67.2328C192.051 68.4479 191.063 69.4328 189.845 69.4328C188.627 69.4328 187.64 68.4479 187.64 67.2328C187.64 66.0178 188.627 65.0328 189.845 65.0328C191.063 65.0328 192.051 66.0178 192.051 67.2328ZM192.051 83.3662C192.051 84.5812 191.063 85.5662 189.845 85.5662C188.627 85.5662 187.64 84.5812 187.64 83.3662C187.64 82.1512 188.627 81.1662 189.845 81.1662C191.063 81.1662 192.051 82.1512 192.051 83.3662ZM192.051 99.4995C192.051 100.715 191.063 101.7 189.845 101.7C188.627 101.7 187.64 100.715 187.64 99.4995C187.64 98.2845 188.627 97.2995 189.845 97.2995C191.063 97.2995 192.051 98.2845 192.051 99.4995ZM192.051 115.633C192.051 116.848 191.063 117.833 189.845 117.833C188.627 117.833 187.64 116.848 187.64 115.633C187.64 114.418 188.627 113.433 189.845 113.433C191.063 113.433 192.051 114.418 192.051 115.633ZM192.051 131.766C192.051 132.981 191.063 133.966 189.845 133.966C188.627 133.966 187.64 132.981 187.64 131.766C187.64 130.551 188.627 129.566 189.845 129.566C191.063 129.566 192.051 130.551 192.051 131.766ZM192.051 147.9C192.051 149.115 191.063 150.1 189.845 150.1C188.627 150.1 187.64 149.115 187.64 147.9C187.64 146.684 188.627 145.7 189.845 145.7C191.063 145.7 192.051 146.684 192.051 147.9ZM192.051 164.033C192.051 165.248 191.063 166.233 189.845 166.233C188.627 166.233 187.64 165.248 187.64 164.033C187.64 162.818 188.627 161.833 189.845 161.833C191.063 161.833 192.051 162.818 192.051 164.033ZM192.051 180.166C192.051 181.381 191.063 182.366 189.845 182.366C188.627 182.366 187.64 181.381 187.64 180.166C187.64 178.951 188.627 177.966 189.845 177.966C191.063 177.966 192.051 178.951 192.051 180.166ZM192.051 196.3C192.051 197.515 191.063 198.5 189.845 198.5C188.627 198.5 187.64 197.515 187.64 196.3C187.64 195.084 188.627 194.1 189.845 194.1C191.063 194.1 192.051 195.084 192.051 196.3ZM192.051 212.433C192.051 213.648 191.063 214.633 189.845 214.633C188.627 214.633 187.64 213.648 187.64 212.433C187.64 211.218 188.627 210.233 189.845 210.233C191.063 210.233 192.051 211.218 192.051 212.433Z" fill="#F6F6F6"/>
<path fill-rule="evenodd" clip-rule="evenodd" d="M227.941 59.6502C256.169 71.5339 276.034 99.8452 280.843 129.38C285.652 158.914 275.197 189.672 254.497 211.518C233.796 233.363 202.849 246.47 171.066 255.208C139.074 264.121 106.245 268.664 81.1534 259.402C56.0615 250.14 38.7063 226.897 23.6512 203.304C8.59603 179.886 -4.15902 156.118 1.27756 135.846C6.92323 115.574 30.5514 98.9714 54.3887 86.5634C78.2261 74.1553 101.854 65.7668 132.174 59.3006C162.493 52.6597 199.504 47.9412 227.941 59.6502Z" fill="#F6F6F6"/>
<path fill-rule="evenodd" clip-rule="evenodd" d="M4.40625 250.171C5.48304 250.171 6.4594 250.61 7.16665 251.319C7.87413 252.027 8.3125 253.006 8.3125 254.085C8.3125 255.164 7.87405 256.143 7.16649 256.852C6.45926 257.56 5.48296 258 4.40625 258C3.32954 258 2.35324 257.56 1.64601 256.852C0.938453 256.143 0.5 255.164 0.5 254.085C0.5 253.006 0.938373 252.027 1.64585 251.319C2.3531 250.61 3.32946 250.171 4.40625 250.171ZM4.40625 250.498C3.41885 250.498 2.52309 250.9 1.87434 251.55C1.22604 252.2 0.82459 253.096 0.82459 254.085C0.82459 255.074 1.22604 255.971 1.87434 256.62C2.52309 257.27 3.41885 257.673 4.40625 257.673C5.39395 257.673 6.28961 257.27 6.93825 256.621C7.58656 255.971 7.98791 255.074 7.98791 254.085C7.98791 253.096 7.58656 252.199 6.93825 251.55C6.28961 250.9 5.39395 250.498 4.40625 250.498ZM232.73 198.671C232.807 198.671 232.883 198.7 232.943 198.76C233.002 198.819 233.031 198.896 233.031 198.974C233.031 199.051 233.002 199.129 232.942 199.188L229.551 202.585L232.942 205.982C233.002 206.041 233.031 206.119 233.031 206.197C233.031 206.274 233.002 206.352 232.942 206.411C232.884 206.47 232.807 206.5 232.73 206.5C232.653 206.5 232.576 206.47 232.517 206.411L229.125 203.012L225.733 206.411C225.674 206.47 225.597 206.5 225.52 206.5C225.443 206.5 225.366 206.47 225.308 206.411C225.248 206.352 225.219 206.274 225.219 206.197C225.219 206.119 225.248 206.041 225.308 205.982L228.698 202.585L225.308 199.189C225.248 199.129 225.219 199.051 225.219 198.974C225.219 198.896 225.248 198.819 225.308 198.759C225.367 198.7 225.443 198.671 225.52 198.671L229.125 202.157L232.517 198.76C232.576 198.701 232.653 198.671 232.73 198.671ZM56.4796 189.842C56.5568 189.842 56.6338 189.872 56.6927 189.931C56.7517 189.99 56.781 190.068 56.781 190.145C56.781 190.223 56.7514 190.301 56.6927 190.36L53.3012 193.756L56.6923 197.154C56.7515 197.213 56.7812 197.29 56.7812 197.368C56.7812 197.446 56.7515 197.523 56.6923 197.582C56.6337 197.641 56.5567 197.671 56.4796 197.671C56.4026 197.671 56.3256 197.641 56.2669 197.582L52.8747 194.184L49.4831 197.582C49.4244 197.641 49.3474 197.671 49.2704 197.671C49.1933 197.671 49.1163 197.641 49.0577 197.582C48.9985 197.523 48.9688 197.446 48.9688 197.368C48.9688 197.29 48.9985 197.213 49.0577 197.154L52.4482 193.756L49.0578 190.36C48.9986 190.301 48.969 190.223 48.969 190.145C48.969 190.068 48.9983 189.99 49.0573 189.931C49.1162 189.872 49.1932 189.842 49.2704 189.842L52.8747 193.329L56.2677 189.931C56.3262 189.872 56.4029 189.842 56.4796 189.842ZM229.125 114.8C230.202 114.8 231.178 115.239 231.885 115.947C232.593 116.656 233.031 117.634 233.031 118.713C233.031 119.793 232.593 120.772 231.885 121.48C231.178 122.189 230.202 122.628 229.125 122.628C228.048 122.628 227.072 122.189 226.365 121.48C225.657 120.772 225.219 119.793 225.219 118.713C225.219 117.634 225.657 116.656 226.365 115.947C227.072 115.239 228.048 114.8 229.125 114.8ZM229.125 115.126C228.137 115.126 227.242 115.529 226.593 116.178C225.945 116.828 225.543 117.725 225.543 118.713C225.543 119.702 225.945 120.599 226.593 121.249C227.242 121.899 228.137 122.301 229.125 122.301C230.112 122.301 231.008 121.899 231.657 121.249C232.305 120.599 232.707 119.702 232.707 118.713C232.707 117.725 232.305 116.828 231.657 116.178C231.008 115.529 230.112 115.126 229.125 115.126ZM281.199 52.9995C281.276 52.9995 281.352 53.0289 281.411 53.0876C281.47 53.1469 281.5 53.2246 281.5 53.3023C281.5 53.3797 281.47 53.4571 281.411 53.5165L278.02 56.9135L281.411 60.3107C281.47 60.37 281.5 60.4476 281.5 60.5252C281.5 60.6028 281.47 60.6803 281.411 60.7396C281.352 60.7984 281.275 60.8281 281.198 60.8281C281.121 60.8281 281.044 60.7984 280.986 60.7396L277.593 57.3407L274.202 60.7396C274.143 60.7984 274.066 60.8281 273.989 60.8281C273.912 60.8281 273.835 60.7984 273.776 60.7396C273.717 60.6803 273.688 60.6028 273.688 60.5252C273.688 60.4476 273.717 60.37 273.776 60.3107L277.167 56.9135L273.776 53.516C273.717 53.4571 273.688 53.3797 273.688 53.3023C273.688 53.2246 273.717 53.1469 273.776 53.0876C273.835 53.0289 273.912 52.9995 273.989 52.9995L277.593 56.4852L280.985 53.088C281.044 53.0291 281.121 52.9995 281.199 52.9995ZM55.4548 53.9715C56.2642 54.6841 56.7086 55.6604 56.7731 56.661C56.8375 57.6615 56.5221 58.6867 55.8107 59.4974C55.1251 60.2791 54.1777 60.7485 53.1415 60.8189C51.9344 60.8244 51.0213 60.4914 50.2972 59.8531C49.5131 59.1634 49.0446 58.2089 48.977 57.1647C48.9101 56.1213 49.2524 55.1138 49.9422 54.328C50.653 53.5174 51.6267 53.0723 52.6248 53.0077C53.623 52.9432 54.6457 53.2592 55.4548 53.9715ZM52.8781 53.3264C51.8827 53.3264 50.8921 53.7385 50.1847 54.5444C49.5535 55.2647 49.2395 56.1875 49.3018 57.1443C49.3634 58.0999 49.7929 58.9749 50.5109 59.6071C51.2305 60.2408 52.1545 60.558 53.1081 60.4932C54.0618 60.4316 54.9356 60.0005 55.5669 59.2809C56.2186 58.5382 56.5083 57.5992 56.4493 56.6823C56.3904 55.7654 55.9829 54.8711 55.2414 54.2177C54.5619 53.6203 53.7181 53.3264 52.8781 53.3264Z" stroke="#E5E5E5"/>
<path fill-rule="evenodd" clip-rule="evenodd" d="M190.7 110.075C189.722 110.075 188.925 109.279 188.925 108.3C188.925 107.321 189.722 106.525 190.7 106.525C191.679 106.525 192.475 107.321 192.475 108.3C192.475 109.279 191.679 110.075 190.7 110.075Z" fill="#CACAFB"/>
<path fill-rule="evenodd" clip-rule="evenodd" d="M142.775 221.9C141.796 221.9 141 221.104 141 220.125C141 219.146 141.796 218.35 142.775 218.35C143.754 218.35 144.55 219.146 144.55 220.125C144.55 221.104 143.754 221.9 142.775 221.9Z" fill="#CACAFB"/>
<path fill-rule="evenodd" clip-rule="evenodd" d="M96.6251 104.75C95.6464 104.75 94.8501 103.954 94.8501 102.975C94.8501 101.996 95.6464 101.2 96.6251 101.2C97.6038 101.2 98.4001 101.996 98.4001 102.975C98.4001 103.954 97.6038 104.75 96.6251 104.75Z" fill="#CACAFB"/>
<path d="M98.4 126.05C97.4213 126.05 96.625 125.254 96.625 124.275C96.625 123.296 97.4213 122.5 98.4 122.5C99.3787 122.5 100.175 123.296 100.175 124.275C100.175 125.254 99.3787 126.05 98.4 126.05Z" fill="#E1000F"/>
<path d="M105.5 126.05C104.521 126.05 103.725 125.254 103.725 124.275C103.725 123.296 104.521 122.5 105.5 122.5C106.479 122.5 107.275 123.296 107.275 124.275C107.275 125.254 106.479 126.05 105.5 126.05Z" fill="#E1000F"/>
<path d="M110.825 124.275C110.825 125.254 111.621 126.05 112.6 126.05C113.579 126.05 114.375 125.254 114.375 124.275C114.375 123.296 113.579 122.5 112.6 122.5C111.621 122.5 110.825 123.296 110.825 124.275Z" fill="#E1000F"/>
<path d="M180.05 122.5C181.03 122.5 181.825 123.295 181.825 124.275C181.825 125.185 181.14 125.936 180.257 126.038L180.05 126.05H126.8C125.82 126.05 125.025 125.255 125.025 124.275C125.025 123.365 125.71 122.614 126.593 122.512L126.8 122.5H180.05Z" fill="#E1000F"/>
<path fill-rule="evenodd" clip-rule="evenodd" d="M161.044 175.229C160.711 175.924 160.525 176.703 160.525 177.525C160.525 180.466 162.909 182.85 165.85 182.85C168.791 182.85 171.175 180.466 171.175 177.525C171.175 176.433 170.846 175.418 170.283 174.573L177.92 164.39L178.043 164.204C178.48 163.438 178.289 162.448 177.565 161.905C176.781 161.317 175.668 161.476 175.08 162.26L167.443 172.442C166.94 172.285 166.405 172.2 165.85 172.2C165.028 172.2 164.249 172.386 163.554 172.719L160.005 169.17L159.838 169.022C159.142 168.481 158.135 168.53 157.495 169.17C156.802 169.863 156.802 170.987 157.495 171.68L161.044 175.229ZM165.85 175.75C166.83 175.75 167.625 176.545 167.625 177.525C167.625 178.505 166.83 179.3 165.85 179.3C164.87 179.3 164.075 178.505 164.075 177.525C164.075 176.545 164.87 175.75 165.85 175.75Z" fill="#E1000F"/>
<path d="M188.913 116.968C188.81 116.085 188.06 115.4 187.15 115.4H91.2999L91.0929 115.412C90.2101 115.514 89.5249 116.265 89.5249 117.175V198.825L89.5368 199.032C89.6394 199.915 90.3896 200.6 91.2999 200.6H133.9L134.107 200.588C134.99 200.486 135.675 199.735 135.675 198.825L135.663 198.618C135.56 197.735 134.81 197.05 133.9 197.05H93.0749V133.15H158.75L158.957 133.138C159.84 133.036 160.525 132.285 160.525 131.375C160.525 130.395 159.73 129.6 158.75 129.6H93.0749V118.95H185.375V145.575L185.387 145.782C185.489 146.665 186.24 147.35 187.15 147.35C188.13 147.35 188.925 146.555 188.925 145.575V117.175L188.913 116.968Z" fill="#000091"/>
<path d="M196.025 177.525C196.025 160.86 182.515 147.35 165.85 147.35C149.185 147.35 135.675 160.86 135.675 177.525C135.675 192.827 147.065 205.469 161.83 207.435L161.045 208.22L160.897 208.387C160.356 209.083 160.405 210.09 161.045 210.73C161.738 211.423 162.862 211.423 163.555 210.73L167.105 207.18C167.157 207.128 167.206 207.072 167.252 207.014C167.351 206.887 167.431 206.748 167.49 206.604C167.566 206.422 167.612 206.224 167.623 206.016C167.624 205.986 167.625 205.956 167.625 205.925C167.625 205.686 167.578 205.458 167.492 205.249C167.405 205.039 167.276 204.841 167.105 204.67L163.555 201.12L163.388 200.972C162.691 200.431 161.685 200.48 161.045 201.12L160.897 201.287C160.356 201.983 160.405 202.99 161.045 203.63L161.151 203.737C148.688 201.518 139.225 190.626 139.225 177.525C139.225 162.82 151.145 150.9 165.85 150.9C180.554 150.9 192.475 162.82 192.475 177.525C192.475 183.736 190.344 189.615 186.503 194.329C185.884 195.089 185.998 196.207 186.758 196.827C187.518 197.446 188.636 197.332 189.255 196.572C193.608 191.229 196.025 184.56 196.025 177.525Z" fill="#000091"/>
<path d="M184.711 201.08C185.476 200.467 185.599 199.35 184.986 198.585C184.373 197.82 183.256 197.697 182.491 198.31C181.444 199.15 180.335 199.909 179.174 200.582C178.326 201.073 178.037 202.159 178.528 203.007C179.019 203.855 180.105 204.145 180.954 203.653C182.269 202.891 183.525 202.031 184.711 201.08Z" fill="#000091"/>
<path d="M169.795 158.399C168.506 158.134 167.186 158 165.85 158C155.067 158 146.325 166.742 146.325 177.525C146.325 188.308 155.067 197.05 165.85 197.05C176.633 197.05 185.375 188.308 185.375 177.525C185.375 174.834 184.829 172.217 183.785 169.797C183.397 168.897 182.352 168.482 181.452 168.87C180.552 169.258 180.137 170.303 180.526 171.203C181.379 173.181 181.825 175.32 181.825 177.525C181.825 186.348 174.673 193.5 165.85 193.5C157.027 193.5 149.875 186.348 149.875 177.525C149.875 168.702 157.027 161.55 165.85 161.55C166.946 161.55 168.026 161.66 169.081 161.877C170.041 162.074 170.98 161.455 171.177 160.495C171.374 159.534 170.755 158.596 169.795 158.399Z" fill="#000091"/>
<path d="M137.45 143.8C138.43 143.8 139.225 144.595 139.225 145.575C139.225 146.485 138.54 147.236 137.657 147.338L137.45 147.35H105.5C104.52 147.35 103.725 146.555 103.725 145.575C103.725 144.665 104.41 143.914 105.293 143.812L105.5 143.8H137.45Z" fill="#000091"/>
<path d="M132.125 156.225C132.125 155.245 131.33 154.45 130.35 154.45H105.5L105.293 154.462C104.41 154.564 103.725 155.315 103.725 156.225C103.725 157.205 104.52 158 105.5 158H130.35L130.557 157.988C131.44 157.886 132.125 157.135 132.125 156.225Z" fill="#000091"/>
<path d="M126.8 165.1C127.78 165.1 128.575 165.895 128.575 166.875C128.575 167.785 127.89 168.536 127.007 168.638L126.8 168.65H105.5C104.52 168.65 103.725 167.855 103.725 166.875C103.725 165.965 104.41 165.214 105.293 165.112L105.5 165.1H126.8Z" fill="#000091"/>
</g>
<defs>
<clipPath id="clip0_103_12812">
<rect width="282" height="319" fill="white" transform="translate(0 0.499512)"/>
</clipPath>
</defs>
</svg>
